<svg id="Group_1440" data-name="Group 1440" xmlns="http://www.w3.org/2000/svg" xmlns:xlink="http://www.w3.org/1999/xlink" width="63.5" height="72.467" viewBox="0 0 63.5 72.467">
  <defs>
    <clipPath id="clip-path">
      <rect id="Rectangle_554" data-name="Rectangle 554" width="63.5" height="72.467" fill="none"/>
    </clipPath>
  </defs>
  <g id="Group_1439" data-name="Group 1439" transform="translate(0 0)" clip-path="url(#clip-path)">
    <path id="Path_2512" data-name="Path 2512" d="M43.17,58.993a.841.841,0,0,1-.392-1.585l.614-.322a5.411,5.411,0,0,1,3.051-.607,5.136,5.136,0,0,1,.96.182,4.349,4.349,0,0,0,3.276-.384l16.81-9.4a2.088,2.088,0,0,0,1.076-1.651,2.127,2.127,0,0,0-.166-1.05,2.111,2.111,0,0,0-2.951-1.018.841.841,0,1,1-.8-1.479,3.8,3.8,0,0,1,3.659,6.666l-16.81,9.4a5.946,5.946,0,0,1-4.561.529,3.639,3.639,0,0,0-.651-.124,3.8,3.8,0,0,0-2.109.422l-.615.324a.848.848,0,0,1-.39.1" transform="translate(-6.754 -6.578)" fill="#001117"/>
    <path id="Path_2513" data-name="Path 2513" d="M63.271,44.786a.841.841,0,0,1-.4-1.579l6.17-3.35a2.334,2.334,0,0,0-.428-4.282,2.317,2.317,0,0,0-1.82.184l-.694.382a.84.84,0,0,1-.809-1.472l.7-.382a4.023,4.023,0,0,1,5.534,1.727,4.017,4.017,0,0,1-1.676,5.321l-6.169,3.35a.843.843,0,0,1-.4.1" transform="translate(-9.961 -5.391)" fill="#001117"/>
    <path id="Path_2514" data-name="Path 2514" d="M30.082,39.709a.84.84,0,0,1-.778-1.16L33.149,29.2a11.825,11.825,0,0,0,.024-8.684l-.706-1.825a3.889,3.889,0,0,1,.712-3.989,3.882,3.882,0,0,1,5.924.157l1.391,1.726a14.449,14.449,0,0,1,3.123,7.907l.086,1.161a.119.119,0,0,0,.171.095l8.587-4.532a4.007,4.007,0,0,1,5.246,1.417,3.962,3.962,0,0,1,.6,2.494c-.009.1-.023.2-.04.3a4,4,0,0,1,2.545,7.457l-4.814,2.661a.84.84,0,0,1-.813-1.471l4.811-2.659a2.318,2.318,0,0,0-.54-4.273,2.308,2.308,0,0,0-1.776.248l-1.148.68a1.424,1.424,0,0,1-.14.1l-2.963,1.759a.841.841,0,0,1-.861-1.444L55.6,26.668h0a2.243,2.243,0,0,0,1.033-1.7A2.319,2.319,0,0,0,53.244,22.7l-8.582,4.53a1.8,1.8,0,0,1-2.636-1.453l-.084-1.16a12.783,12.783,0,0,0-2.761-6.983L37.794,15.91a2.194,2.194,0,0,0-3.759,2.173l.706,1.823a13.5,13.5,0,0,1-.033,9.921L30.86,39.188a.841.841,0,0,1-.777.521" transform="translate(-4.666 -2.138)" fill="#001117"/>
    <path id="Path_2515" data-name="Path 2515" d="M14.4,79.04a.868.868,0,0,1-.155-.014.838.838,0,0,1-.556-.377L.131,57.22a.839.839,0,0,1,.244-1.149l21.65-14.416a2.716,2.716,0,0,1,3.691.643L37.769,58.564a2.718,2.718,0,0,1-.566,3.8L14.9,78.875a.831.831,0,0,1-.5.165M1.99,57.015,14.625,76.987,36.2,61.017a1.04,1.04,0,0,0,.217-1.452L24.366,43.3a1.036,1.036,0,0,0-1.409-.246Z" transform="translate(0 -6.573)" fill="#001117"/>
    <path id="Path_2516" data-name="Path 2516" d="M28.191,63.527a.838.838,0,0,1-.7-.368l-9.96-14.692a.841.841,0,0,1,1.393-.944l9.959,14.691a.841.841,0,0,1-.7,1.313" transform="translate(-2.775 -7.524)" fill="#001117"/>
    <path id="Path_2517" data-name="Path 2517" d="M34.241,72.411a.84.84,0,0,1-.7-.369l-1.689-2.5a.84.84,0,1,1,1.392-.942l1.689,2.5a.84.84,0,0,1-.7,1.312" transform="translate(-5.06 -10.888)" fill="#001117"/>
    <path id="Path_2518" data-name="Path 2518" d="M49.421,11.312a.84.84,0,0,1-.663-1.356L52.452,5.2a.84.84,0,1,1,1.328,1.03l-3.695,4.759a.839.839,0,0,1-.665.325" transform="translate(-7.752 -0.777)" fill="#6a900a"/>
    <path id="Path_2519" data-name="Path 2519" d="M36.39,7.659a.84.84,0,0,1-.833-.735L34.8.946a.841.841,0,0,1,1.668-.21l.752,5.978a.84.84,0,0,1-.729.939.907.907,0,0,1-.106.007" transform="translate(-5.552 0)" fill="#6a900a"/>
    <path id="Path_2520" data-name="Path 2520" d="M23.988,14.6a.833.833,0,0,1-.514-.176l-4.759-3.7A.84.84,0,1,1,19.746,9.4l4.759,3.7a.84.84,0,0,1-.516,1.5" transform="translate(-2.934 -1.471)" fill="#6a900a"/>
  </g>
</svg>
