<svg id="Group_143" data-name="Group 143" xmlns="http://www.w3.org/2000/svg" width="29.594" height="29.594" viewBox="0 0 29.594 29.594">
  <path id="linkedin-in" d="M3.249,46.512H.24V36.823H3.249ZM1.743,35.5a1.751,1.751,0,1,1,1.743-1.759A1.757,1.757,0,0,1,1.743,35.5Zm12.769,11.01h-3V41.8c0-1.124-.023-2.565-1.565-2.565-1.565,0-1.8,1.221-1.8,2.484v4.8H5.134V36.823H8.02v1.322h.042a3.162,3.162,0,0,1,2.847-1.565c3.045,0,3.605,2.005,3.605,4.609v5.322Z" transform="translate(7.263 -24.737)" fill="#001117"/>
  <g id="Path_439" data-name="Path 439" transform="translate(0 0)" fill="none">
    <path d="M14.8,0A14.8,14.8,0,1,1,0,14.8,14.8,14.8,0,0,1,14.8,0Z" stroke="none"/>
    <path d="M 14.79710865020752 2 C 11.37887954711914 2 8.165239334106445 3.331140518188477 5.748188018798828 5.748199462890625 C 3.33112907409668 8.165260314941406 1.999998092651367 11.37891006469727 1.999998092651367 14.79714965820312 C 1.999998092651367 18.21538925170898 3.33112907409668 21.42903900146484 5.748188018798828 23.84609985351562 C 8.165239334106445 26.26316070556641 11.37887954711914 27.59429931640625 14.79710865020752 27.59429931640625 C 18.21533966064453 27.59429931640625 21.42897796630859 26.26316070556641 23.84602928161621 23.84609985351562 C 26.26308822631836 21.42903900146484 27.59421920776367 18.21538925170898 27.59421920776367 14.79714965820312 C 27.59421920776367 11.37891006469727 26.26308822631836 8.165260314941406 23.84602928161621 5.748199462890625 C 21.42897796630859 3.331140518188477 18.21533966064453 2 14.79710865020752 2 M 14.79710865020752 0 C 22.96932983398438 0 29.59421920776367 6.624910354614258 29.59421920776367 14.79714965820312 C 29.59421920776367 22.96938896179199 22.96932983398438 29.59429931640625 14.79710865020752 29.59429931640625 C 6.624889373779297 29.59429931640625 -1.9073486328125e-06 22.96938896179199 -1.9073486328125e-06 14.79714965820312 C -1.9073486328125e-06 6.624910354614258 6.624889373779297 0 14.79710865020752 0 Z" stroke="none" fill="#001117"/>
  </g>
</svg>
