<svg xmlns="http://www.w3.org/2000/svg" width="333.76" height="33.61" viewBox="0 0 333.76 33.61">
  <g id="Group_1262" data-name="Group 1262" transform="translate(-43.593 -266.66)">
    <path id="Path_2466" data-name="Path 2466" d="M368.264,288.726a4.714,4.714,0,0,0-2.891,4.09,4.884,4.884,0,0,0,5.454,5.291,4.955,4.955,0,0,0,4.309-4.145,5.012,5.012,0,0,0-1.418-4.255,4.721,4.721,0,0,0-4.09-1.308,4.9,4.9,0,0,0-1.364.327M342.9,293.471c.257,6.173,9.807,6.174,9.818-.273a4.911,4.911,0,1,0-9.818.273m12.108-11.017a6.109,6.109,0,0,0-1.8,4.69,5.937,5.937,0,0,0,1.8,3.927c3.336,3.257,9.7,1.4,10.145-3.709a5.868,5.868,0,0,0-6.109-6.545,5.948,5.948,0,0,0-4.036,1.637m-.054-11.4a6.274,6.274,0,0,0-.764,2.564,4.706,4.706,0,0,0,1.418,3.545c2.888,2.962,8.455,1,8.4-3.436a4.834,4.834,0,0,0-5.236-4.854,4.931,4.931,0,0,0-3.818,2.181m3.545-4.363a7.048,7.048,0,0,1,7.69,6.272c.269,2.929-1.457,4.412-.872,7.418a6.727,6.727,0,0,0,2.345,3.981c1.444,1.245,2.8,1.452,4.472,1.909A7.111,7.111,0,0,1,371.1,300.18a7.157,7.157,0,0,1-5.018-1.31,20.162,20.162,0,0,1-2.181-2.236,6.542,6.542,0,0,0-2.782-1.581,7.123,7.123,0,0,0-6.709,1.418c-.845.725-1.309,1.649-2.127,2.29a6.848,6.848,0,0,1-3,1.364,7.084,7.084,0,0,1-4.418-13.363,34.485,34.485,0,0,1,3.436-.981,7.12,7.12,0,0,0,2.672-1.691,6.838,6.838,0,0,0,1.964-6.436,19.085,19.085,0,0,1-.927-3.654,6.968,6.968,0,0,1,.872-3.709,6.79,6.79,0,0,1,5.618-3.6" fill="#616060"/>
    <path id="Path_2467" data-name="Path 2467" d="M43.593,298.942V268.971h7.281v23.665h11.6v6.306Z" fill="#616060"/>
    <path id="Path_2468" data-name="Path 2468" d="M87.237,283.829a10.271,10.271,0,0,0-.635-3.64,8.674,8.674,0,0,0-1.757-2.9,8.112,8.112,0,0,0-2.709-1.9,8.575,8.575,0,0,0-3.492-.7,8.332,8.332,0,0,0-6.18,2.6,8.227,8.227,0,0,0-1.757,2.9,10.586,10.586,0,0,0-.615,3.64,10.712,10.712,0,0,0,.635,3.746,8.864,8.864,0,0,0,1.758,2.943,8.017,8.017,0,0,0,2.688,1.927,8.979,8.979,0,0,0,6.942,0,8.276,8.276,0,0,0,2.709-1.927,8.647,8.647,0,0,0,1.778-2.943,10.689,10.689,0,0,0,.635-3.746m7.747,0a16.715,16.715,0,0,1-1.227,6.5,14.8,14.8,0,0,1-3.409,5.038,15.145,15.145,0,0,1-5.185,3.238,18.2,18.2,0,0,1-6.519,1.144,18.02,18.02,0,0,1-6.5-1.144,15.2,15.2,0,0,1-5.165-3.238,14.782,14.782,0,0,1-3.408-5.038,16.715,16.715,0,0,1-1.227-6.5,16.516,16.516,0,0,1,1.227-6.5,14.229,14.229,0,0,1,3.408-4.933,15.208,15.208,0,0,1,5.165-3.132,18.634,18.634,0,0,1,6.5-1.1,18.822,18.822,0,0,1,6.519,1.1,15.155,15.155,0,0,1,5.185,3.132,14.245,14.245,0,0,1,3.409,4.933,16.516,16.516,0,0,1,1.227,6.5" fill="#616060"/>
    <path id="Path_2469" data-name="Path 2469" d="M120.4,298.984a27.009,27.009,0,0,1-6.413.721,18.576,18.576,0,0,1-6.625-1.145,15.244,15.244,0,0,1-5.207-3.217,14.615,14.615,0,0,1-3.408-4.974,17.6,17.6,0,0,1,.021-12.974,14.507,14.507,0,0,1,3.45-4.974,15.269,15.269,0,0,1,5.164-3.154,18.215,18.215,0,0,1,6.393-1.1,19.656,19.656,0,0,1,6.6,1.08,13.689,13.689,0,0,1,4.954,2.9l-4.573,5.208a7.905,7.905,0,0,0-2.794-2.011,9.475,9.475,0,0,0-3.936-.783,8.71,8.71,0,0,0-3.513.7,8.439,8.439,0,0,0-2.794,1.946,8.846,8.846,0,0,0-1.843,2.964,10.407,10.407,0,0,0-.655,3.746,11.674,11.674,0,0,0,.593,3.81,8.18,8.18,0,0,0,1.755,2.985,8.017,8.017,0,0,0,2.88,1.946,10.3,10.3,0,0,0,3.914.7,14.7,14.7,0,0,0,2.415-.191,8.862,8.862,0,0,0,2.116-.614v-5.462h-5.715v-5.84h12.361v15.874a22.974,22.974,0,0,1-5.143,1.863" fill="#616060"/>
    <rect id="Rectangle_529" data-name="Rectangle 529" width="7.281" height="29.971" transform="translate(130.627 268.971)" fill="#616060"/>
    <rect id="Rectangle_530" data-name="Rectangle 530" width="10.752" height="5.503" transform="translate(141.675 285.099)" fill="#616060"/>
    <path id="Path_2470" data-name="Path 2470" d="M165.211,275.151v23.791h-7.239V275.151h-8.466v-6.18h24.171v6.18Z" fill="#616060"/>
    <path id="Path_2471" data-name="Path 2471" d="M176.132,298.942V268.971h20.15v6.1H183.117v5.672h12.445v5.8H183.117v6.223h13.928v6.18Z" fill="#616060"/>
    <path id="Path_2472" data-name="Path 2472" d="M222.444,298.412a16.059,16.059,0,0,1-6.732,1.335A17.559,17.559,0,0,1,209.3,298.6a14.807,14.807,0,0,1-8.488-8.254,17.563,17.563,0,0,1,.022-12.954,14.5,14.5,0,0,1,3.449-4.974,15.283,15.283,0,0,1,5.165-3.154,18.508,18.508,0,0,1,12.636.021,11.955,11.955,0,0,1,4.973,3.281l-4.909,4.911a6.077,6.077,0,0,0-2.668-2.075,8.843,8.843,0,0,0-3.386-.677,8.568,8.568,0,0,0-3.492.7,8.2,8.2,0,0,0-2.731,1.927,8.75,8.75,0,0,0-1.777,2.9,10.233,10.233,0,0,0-.635,3.663,10.519,10.519,0,0,0,.635,3.725,8.666,8.666,0,0,0,1.756,2.9,7.893,7.893,0,0,0,2.689,1.883,8.528,8.528,0,0,0,3.429.678,8,8,0,0,0,3.767-.847,7.321,7.321,0,0,0,2.581-2.2l5.038,4.741a14.247,14.247,0,0,1-4.909,3.619" fill="#616060"/>
    <path id="Path_2473" data-name="Path 2473" d="M248.519,298.942V286.411H236.835v12.531H229.6V268.971h7.237v11.345h11.684V268.971h7.24v29.971Z" fill="#616060"/>
    <path id="Path_2474" data-name="Path 2474" d="M280.141,298.942l-12.063-19.6h-.128l.17,19.6h-7.027V268.971h8.254l12.022,19.558h.127l-.169-19.558h7.027v29.971Z" fill="#616060"/>
    <rect id="Rectangle_531" data-name="Rectangle 531" width="7.28" height="29.971" transform="translate(293.688 268.971)" fill="#616060"/>
    <path id="Path_2475" data-name="Path 2475" d="M327.765,298.412a16.059,16.059,0,0,1-6.732,1.335,17.551,17.551,0,0,1-6.413-1.144,14.8,14.8,0,0,1-8.488-8.254,17.576,17.576,0,0,1,.022-12.954,14.493,14.493,0,0,1,3.45-4.974,15.263,15.263,0,0,1,5.165-3.154,18.5,18.5,0,0,1,12.634.021,11.953,11.953,0,0,1,4.974,3.281l-4.909,4.911A6.082,6.082,0,0,0,324.8,275.4a8.843,8.843,0,0,0-3.386-.677,8.568,8.568,0,0,0-3.492.7,8.2,8.2,0,0,0-2.73,1.927,8.769,8.769,0,0,0-1.778,2.9,10.233,10.233,0,0,0-.637,3.663,10.519,10.519,0,0,0,.637,3.725,8.7,8.7,0,0,0,1.756,2.9,7.9,7.9,0,0,0,2.687,1.883,8.545,8.545,0,0,0,3.431.678,8,8,0,0,0,3.767-.847,7.321,7.321,0,0,0,2.581-2.2l5.038,4.741a14.257,14.257,0,0,1-4.909,3.619" fill="#616060"/>
    <path id="Path_2476" data-name="Path 2476" d="M362.578,273.845a3.522,3.522,0,1,1-3.522-3.522,3.523,3.523,0,0,1,3.522,3.522" fill="#7e9300"/>
    <path id="Path_2477" data-name="Path 2477" d="M351.375,293.313a3.522,3.522,0,1,1-3.522-3.522,3.522,3.522,0,0,1,3.522,3.522" fill="#7e9300"/>
    <path id="Path_2478" data-name="Path 2478" d="M373.861,293.313a3.522,3.522,0,1,1-3.522-3.522,3.522,3.522,0,0,1,3.522,3.522" fill="#7e9300"/>
  </g>
</svg>
