<svg id="Group_1471" data-name="Group 1471" xmlns="http://www.w3.org/2000/svg" xmlns:xlink="http://www.w3.org/1999/xlink" width="1927.049" height="610.298" viewBox="0 0 1927.049 610.298">
  <defs>
    <clipPath id="clip-path">
      <path id="Path_2535" data-name="Path 2535" d="M0,0H1927.049V610.3H0Z" fill="none"/>
    </clipPath>
  </defs>
  <g id="Mask_Group_2" data-name="Mask Group 2" clip-path="url(#clip-path)">
    <path id="Path_2534" data-name="Path 2534" d="M1,609.3H498.748a50.617,50.617,0,0,0,50.521-50.712V436.267a50.616,50.616,0,0,1,50.521-50.712h464.816a50.617,50.617,0,0,0,50.521-50.712,50.616,50.616,0,0,1,50.521-50.712h173.918a50.617,50.617,0,0,1,50.521,50.712,50.617,50.617,0,0,0,50.521,50.712h122.726a50.617,50.617,0,0,0,50.521-50.712V51.712A50.616,50.616,0,0,1,1664.374,1h261.682" transform="translate(-0.004)" fill="none" stroke="#6a900a" stroke-linecap="round" stroke-linejoin="round" stroke-width="2"/>
  </g>
</svg>
