<svg xmlns="http://www.w3.org/2000/svg" width="632.882" height="725.979" viewBox="0 0 632.882 725.979">
  <g id="Group_1196" data-name="Group 1196" transform="translate(0.5)">
    <path id="Path_1840" data-name="Path 1840" d="M632.382,569.909H481.737a52.1,52.1,0,0,0-52.1,52.1V768.067a52.1,52.1,0,0,1-52.1,52.1H52.1A52.1,52.1,0,0,0,0,872.261v139.767a52.1,52.1,0,0,0,52.1,52.1H491.435a52.1,52.1,0,0,1,52.1,52.1V1197.5a52.1,52.1,0,0,0,52.1,52.1h36.753" transform="translate(0 -524.121)" fill="none" stroke="#6a900a" stroke-width="1"/>
    <g id="Group_950" data-name="Group 950" transform="translate(520.865 0)">
      <path id="Path_1841" data-name="Path 1841" d="M92.156,563.755c1.7,0,3.394-1.567,4.765-4.409,3.646-7.574,4.743-23.306-4.235-34.559l-.53-.666-.53.666c-8.978,11.25-7.875,26.988-4.226,34.565,1.365,2.839,3.056,4.4,4.756,4.4m0-37.44c7.941,10.644,6.862,25.547,3.544,32.443-1.1,2.281-2.423,3.644-3.544,3.644s-2.441-1.36-3.538-3.638c-3.324-6.9-4.4-21.808,3.538-32.449" transform="translate(-72.798 -524.121)" fill="#c4c4c4"/>
      <path id="Path_1842" data-name="Path 1842" d="M92.16,569.479a.673.673,0,0,0,.675-.675V540.987a.675.675,0,1,0-1.35,0V568.8a.673.673,0,0,0,.675.675" transform="translate(-72.802 -524.121)" fill="#c4c4c4"/>
      <path id="Path_1843" data-name="Path 1843" d="M105.679,563.756c1.36,0,2.7-1.227,3.777-3.451,2.791-5.81,3.637-17.871-3.249-26.5l-.528-.666-.53.666c-6.88,8.629-6.036,20.7-3.24,26.506,1.07,2.221,2.411,3.445,3.77,3.445m0-28.417c5.871,8.041,5.052,19.2,2.556,24.379-.814,1.681-1.766,2.685-2.556,2.685s-1.741-1-2.549-2.679c-2.5-5.187-3.321-16.344,2.549-24.385" transform="translate(-99.843 -524.121)" fill="#c4c4c4"/>
      <path id="Path_1844" data-name="Path 1844" d="M105.681,569.479a.676.676,0,0,0,.676-.675V546.849a.676.676,0,0,0-1.351,0V568.8a.674.674,0,0,0,.675.675" transform="translate(-99.845 -524.121)" fill="#c4c4c4"/>
    </g>
    <g id="Group_951" data-name="Group 951" transform="translate(88.408 268.74)">
      <path id="Path_1845" data-name="Path 1845" d="M525.789,814.822c-6.13-.009-14.6.033-20.744.024" transform="translate(-486.86 -792.861)" fill="none" stroke="#6a900a" stroke-miterlimit="22.926" stroke-width="1.507"/>
      <path id="Path_1846" data-name="Path 1846" d="M495.169,814.822h-7.321V807.5c0-2.851,8.336-6.407,14.584-7.321,4.741-4.5,8.942-7.32,13.559-7.32h9.566c5.084,0,8,3.659,13.194,7.32h3.888c1.214,3.162,1.675,8.472,1.07,10.9a4.477,4.477,0,0,1-4.732,3.74h-1.1" transform="translate(-487.848 -792.861)" fill="none" stroke="#6a900a" stroke-miterlimit="22.926" stroke-width="1.507"/>
      <path id="Path_1847" data-name="Path 1847" d="M500.163,801.649l2.441.974h19.52l3.662-3.662" transform="translate(-481.976 -792.861)" fill="none" stroke="#6a900a" stroke-miterlimit="22.926" stroke-width="1.507"/>
      <path id="Path_1848" data-name="Path 1848" d="M525.786,814.212a5.491,5.491,0,1,0,5.492-5.491A5.493,5.493,0,0,0,525.786,814.212Z" transform="translate(-518.581 -792.861)" fill="none" stroke="#6a900a" stroke-miterlimit="22.926" stroke-width="1.507"/>
      <path id="Path_1849" data-name="Path 1849" d="M494.063,814.212a5.491,5.491,0,1,0,5.491-5.491A5.492,5.492,0,0,0,494.063,814.212Z" transform="translate(-455.134 -792.861)" fill="none" stroke="#6a900a" stroke-miterlimit="22.926" stroke-width="1.507"/>
    </g>
    <g id="Group_231" data-name="Group 231" transform="translate(280.496 197.405)">
      <g id="Group_230" data-name="Group 230" transform="translate(0)">
        <path id="Path_1228" data-name="Path 1228" d="M163.908,594.6a2.419,2.419,0,1,1,.008-.019Z" transform="translate(-146.683 -567.736)" fill="#6a900a"/>
        <path id="Path_1229" data-name="Path 1229" d="M162.811,569.092c1.012,2.1,8.2,19.1,8.2,19.1s.78,2.981.1,3.027c-.678.028-2.117-2.247-2.117-2.247-6.7-17.68-6.667-17.7-7.428-19.537C160.731,567.5,161.8,566.993,162.811,569.092Z" transform="translate(-155.846 -567.735)" fill="#6a900a"/>
        <path id="Path_1230" data-name="Path 1230" d="M163.432,615.231c1.133-2.034,10.864-17.726,10.864-17.726s2-2.359,2.414-1.829-.613,3.027-.613,3.027c-10.566,15.689-10.6,15.665-11.653,17.346C163.33,617.85,162.3,617.265,163.432,615.231Z" transform="translate(-162.941 -567.736)" fill="#6a900a"/>
        <path id="Path_1231" data-name="Path 1231" d="M157.291,601.823c-2.275-.511-20.066-5.432-20.066-5.432s-2.823-1.244-2.433-1.792,3.074-.269,3.074-.269c18.023,5.72,18.014,5.757,19.927,6.3C159.83,601.182,159.561,602.333,157.291,601.823Z" transform="translate(-117.117 -567.736)" fill="#6a900a"/>
      </g>
      <rect id="Rectangle_131" data-name="Rectangle 131" width="32.676" height="1.792" transform="matrix(-0.006, -1, 1, -0.006, 14.422, 62.503)" fill="#6a900a"/>
    </g>
    <g id="Group_236" data-name="Group 236" transform="translate(215.117 236.626)">
      <g id="Group_232" data-name="Group 232" transform="translate(0 0.011)">
        <line id="Line_530" data-name="Line 530" x2="70.997" transform="translate(0 59.158)" fill="none" stroke="#6a900a" stroke-miterlimit="10" stroke-width="1"/>
        <line id="Line_531" data-name="Line 531" x2="8.877" transform="translate(47.328 31.06)" fill="none" stroke="#6a900a" stroke-miterlimit="10" stroke-width="1"/>
        <line id="Line_532" data-name="Line 532" x2="8.877" transform="translate(47.328 39.928)" fill="none" stroke="#6a900a" stroke-miterlimit="10" stroke-width="1"/>
        <line id="Line_533" data-name="Line 533" x2="8.877" transform="translate(47.328 22.183)" fill="none" stroke="#6a900a" stroke-miterlimit="10" stroke-width="1"/>
        <line id="Line_534" data-name="Line 534" x2="8.877" transform="translate(47.328 13.306)" fill="none" stroke="#6a900a" stroke-miterlimit="10" stroke-width="1"/>
        <line id="Line_535" data-name="Line 535" y1="51.758" transform="translate(56.205)" fill="none" stroke="#6a900a" stroke-miterlimit="10" stroke-width="1"/>
        <line id="Line_536" data-name="Line 536" y2="51.758" transform="translate(44.375)" fill="none" stroke="#6a900a" stroke-miterlimit="10" stroke-width="1"/>
        <path id="Path_1232" data-name="Path 1232" d="M224.428,620.276c0-4.9-10.929-8.877-24.4-8.877s-24.4,3.974-24.4,8.877v45.852h48.8Z" transform="translate(-157.869 -606.967)" fill="none" stroke="#6a900a" stroke-miterlimit="10" stroke-width="1"/>
        <path id="Path_1233" data-name="Path 1233" d="M237.748,626.2c-7.651.715-13.315,3.231-13.315,6.231v33.688" transform="translate(-219.994 -606.967)" fill="none" stroke="#6a900a" stroke-miterlimit="10" stroke-width="1"/>
      </g>
      <g id="Group_235" data-name="Group 235" transform="translate(74.061 0)">
        <g id="Group_233" data-name="Group 233" transform="translate(22.193)">
          <path id="Path_1234" data-name="Path 1234" d="M122.283,627.674V609.918a2.964,2.964,0,0,0-2.962-2.962h-8.877a2.964,2.964,0,0,0-2.962,2.962v2.962" transform="translate(-83.832 -606.956)" fill="none" stroke="#6a900a" stroke-miterlimit="10" stroke-width="1"/>
          <path id="Path_1235" data-name="Path 1235" d="M110.435,646.9H123.75V640.98H98.6" transform="translate(-76.422 -606.956)" fill="none" stroke="#6a900a" stroke-miterlimit="10" stroke-width="1"/>
          <path id="Path_1236" data-name="Path 1236" d="M145.933,646.9H135.58V640.98h7.391" transform="translate(-135.58 -606.956)" fill="none" stroke="#6a900a" stroke-miterlimit="10" stroke-width="1"/>
          <line id="Line_537" data-name="Line 537" x2="14.792" transform="translate(16.267 7.403)" fill="none" stroke="#6a900a" stroke-miterlimit="10" stroke-width="1"/>
          <path id="Path_1237" data-name="Path 1237" d="M100.286,646.9a22.187,22.187,0,0,0,43.976.009" transform="translate(-98.615 -606.956)" fill="none" stroke="#6a900a" stroke-miterlimit="10" stroke-width="1"/>
          <path id="Path_1238" data-name="Path 1238" d="M144.286,640.981a21.965,21.965,0,0,0-14.6-17.745V618.8h-2.962v-4.438h-8.877V618.8h-2.961v4.438a21.964,21.964,0,0,0-14.6,17.745" transform="translate(-98.639 -606.956)" fill="none" stroke="#6a900a" stroke-miterlimit="10" stroke-width="1"/>
          <line id="Line_538" data-name="Line 538" x1="46.539" transform="translate(2.265 59.169)" fill="none" stroke="#6a900a" stroke-miterlimit="10" stroke-width="1"/>
          <line id="Line_539" data-name="Line 539" x2="2.962" transform="translate(19.22 11.841)" fill="none" stroke="#6a900a" stroke-miterlimit="10" stroke-width="1"/>
          <line id="Line_540" data-name="Line 540" x2="2.953" transform="translate(25.144 11.841)" fill="none" stroke="#6a900a" stroke-miterlimit="10" stroke-width="1"/>
        </g>
        <g id="Group_234" data-name="Group 234" transform="translate(0 0.002)">
          <path id="Path_1239" data-name="Path 1239" d="M144.466,618.063v-8.145a2.964,2.964,0,0,0-2.96-2.96h-8.877a2.964,2.964,0,0,0-2.964,2.96v2.962" transform="translate(-106.005 -606.958)" fill="none" stroke="#6a900a" stroke-miterlimit="10" stroke-width="1"/>
          <path id="Path_1240" data-name="Path 1240" d="M168.126,646.9H157.773V640.98h7.4" transform="translate(-157.773 -606.958)" fill="none" stroke="#6a900a" stroke-miterlimit="10" stroke-width="1"/>
          <line id="Line_541" data-name="Line 541" x2="14.783" transform="translate(16.277 7.401)" fill="none" stroke="#6a900a" stroke-miterlimit="10" stroke-width="1"/>
          <path id="Path_1241" data-name="Path 1241" d="M133.7,646.9a22.2,22.2,0,0,0,32.75,16.45" transform="translate(-132.014 -606.958)" fill="none" stroke="#6a900a" stroke-miterlimit="10" stroke-width="1"/>
          <path id="Path_1242" data-name="Path 1242" d="M166.469,624.842a22.362,22.362,0,0,0-3.556-1.606V618.8h-2.964v-4.438h-8.877V618.8H148.11v4.438a21.962,21.962,0,0,0-14.6,17.745" transform="translate(-131.853 -606.958)" fill="none" stroke="#6a900a" stroke-miterlimit="10" stroke-width="1"/>
          <line id="Line_542" data-name="Line 542" x1="46.539" transform="translate(2.275 59.167)" fill="none" stroke="#6a900a" stroke-miterlimit="10" stroke-width="1"/>
          <line id="Line_543" data-name="Line 543" x2="2.962" transform="translate(19.23 11.839)" fill="none" stroke="#6a900a" stroke-miterlimit="10" stroke-width="1"/>
          <line id="Line_544" data-name="Line 544" x2="2.962" transform="translate(25.145 11.839)" fill="none" stroke="#6a900a" stroke-miterlimit="10" stroke-width="1"/>
        </g>
      </g>
    </g>
    <g id="Group_229" data-name="Group 229" transform="translate(302.973 456.833)">
      <g id="Group_229-2" data-name="Group 229-2" transform="translate(47.61 0)">
        <g id="Group_1069" data-name="Group 1069" transform="translate(0)">
          <path id="Path_1222" data-name="Path 1222" d="M569.063,521.032l3.074,35.354h25.329V502.112Z" transform="translate(-546.808 -473.164)" fill="none" stroke="#6a900a" stroke-miterlimit="22.926" stroke-width="1"/>
          <path id="Path_1223" data-name="Path 1223" d="M619.721,556.39H594.392l7.239-83.226H612.49l4.157,47.871Z" transform="translate(-594.392 -473.164)" fill="none" stroke="#6a900a" stroke-miterlimit="22.926" stroke-width="1"/>
        </g>
        <path id="Path_1224" data-name="Path 1224" d="M536.495,556.389h32.568V502.112l-32.568,21.709" transform="translate(-485.837 -473.164)" fill="none" stroke="#6a900a" stroke-miterlimit="22.926" stroke-width="1"/>
        <line id="Line_529" data-name="Line 529" x1="12.744" transform="translate(6.293 10.858)" fill="none" stroke="#6a900a" stroke-miterlimit="22.926" stroke-width="1"/>
        <ellipse id="Ellipse_6" data-name="Ellipse 6" cx="5.429" cy="5.429" rx="5.429" ry="5.429" transform="translate(61.51 50.658)" fill="none" stroke="#6a900a" stroke-miterlimit="22.926" stroke-width="1"/>
        <ellipse id="Ellipse_7" data-name="Ellipse 7" cx="5.429" cy="5.429" rx="5.429" ry="5.429" transform="translate(32.569 50.658)" fill="none" stroke="#6a900a" stroke-miterlimit="22.926" stroke-width="1"/>
      </g>
      <rect id="Rectangle_130" data-name="Rectangle 130" width="39.103" height="39.103" transform="translate(27.543 45.107)" fill="#fff"/>
      <path id="Path_1225" data-name="Path 1225" d="M625.419,510.449l.931.931,1.772-.916,1.7,1.136a.855.855,0,0,0,1.136,0l5.338-6.194a.831.831,0,0,0,0-1.136l-3.771-3.771a.831.831,0,0,0-1.136,0l-6.194,5.338a.855.855,0,0,0,0,1.136l1.136,1.7-.916,1.772Zm.469,6.035a3.935,3.935,0,1,1,0-5.566,3.935,3.935,0,0,1,0,5.566Zm-6.034-.463.931.931-.916,1.772,1.136,1.7a.855.855,0,0,1,0,1.136l-6.194,5.338a.831.831,0,0,1-1.136,0l-3.771-3.771a.831.831,0,0,1,0-1.136l5.338-6.194a.855.855,0,0,1,1.136,0l1.7,1.136Zm7.36,9.549,7.141-7.141m-.682,13.592,7.141-7.141m-8.595,2.141,3.582-3.582m9.616,13.882,11.5-11.5m-7.845,7.845h-7.315v7.315m-8.087,8.087,2.779,2.62c5.588,1.537,12.532-.447,17.711-5.626s7.163-12.115,5.626-17.711l-2.62-2.771-23.5,23.489Zm33.661,7.374h-28.88m11.086,0v-6.8m4.9-3.529,8.375,10.336" transform="translate(-609.68 -473.164)" fill="none" stroke="#6a900a" stroke-miterlimit="22.926" stroke-width="1"/>
      <path id="Path_1226" data-name="Path 1226" d="M531.482,556.367H494.129m5.619,0,13.061-35.877m0,35.877V520.141m13.054,36.226L512.8,520.49m13.062,35.877-19.589-19.65m-6.527,19.65,19.589-19.658M512.809,513.8a2.234,2.234,0,1,0,2.234,2.234,2.234,2.234,0,0,0-2.234-2.234Zm7.315,15.008a14.713,14.713,0,1,0-14.629,0m1.567-3.748a10.692,10.692,0,1,1,11.479,0m-1.643-3.93a6.535,6.535,0,1,0-8.193,0" transform="translate(-358.28 -473.164)" fill="none" stroke="#6a900a" stroke-miterlimit="22.926" stroke-width="1"/>
    </g>
    <g id="Group_138" data-name="Group 138" transform="translate(130.07 473.071)">
      <path id="Path_416" data-name="Path 416" d="M1296.2,653.917a18.4,18.4,0,0,1,0-36.81h0a17.782,17.782,0,0,1,12.672,5.129.853.853,0,0,1-1.207,1.207h0a16.193,16.193,0,0,0-11.465-4.526,16.595,16.595,0,1,0,16.293,19.612c0-.6.6-.9,1.207-.6.6,0,.905.6.6,1.207A18.213,18.213,0,0,1,1296.2,653.917Z" transform="translate(-1275.989 -598.401)" fill="#c4c4c4"/>
      <path id="Path_417" data-name="Path 417" d="M1296.028,666.589a.8.8,0,0,1-.905-.679.779.779,0,0,1,0-.226V627.667a.905.905,0,0,1,1.81,0v38.321C1296.933,666.287,1296.633,666.589,1296.028,666.589Z" transform="translate(-1275.815 -598.401)" fill="#c4c4c4"/>
      <path id="Path_418" data-name="Path 418" d="M1304.469,640.641a9.4,9.4,0,0,1-9.353-9.353.905.905,0,0,1,1.81,0v0a7.47,7.47,0,0,0,7.4,7.543h.147a.9.9,0,0,1,0,1.81Z" transform="translate(-1284.255 -598.401)" fill="#c4c4c4"/>
      <path id="Path_419" data-name="Path 419" d="M1287.556,646.977a.9.9,0,0,1,0-1.81,7.47,7.47,0,0,0,7.543-7.4v-.147a.905.905,0,0,1,1.81,0v0C1297.212,642.753,1292.988,646.977,1287.556,646.977Z" transform="translate(-1267.342 -598.401)" fill="#c4c4c4"/>
      <path id="Path_420" data-name="Path 420" d="M1315.326,666.589h-82.671a.9.9,0,0,1,0-1.81h82.671a.8.8,0,0,1,.9.685.81.81,0,0,1,0,.22A.963.963,0,0,1,1315.326,666.589Z" transform="translate(-1231.751 -598.401)" fill="#c4c4c4"/>
      <g id="Group_137" data-name="Group 137" transform="translate(31.378)">
        <path id="Path_421" data-name="Path 421" d="M1284.856,623.745a25.344,25.344,0,1,0-25.344,25.344h0a25.3,25.3,0,0,0,25.344-25.256Zm-1.81,0a23.534,23.534,0,1,1-23.534-23.534h0C1272.486,600.513,1283.046,611.073,1283.046,623.745Z" transform="translate(-1234.168 -598.401)" fill="#c4c4c4"/>
        <path id="Path_422" data-name="Path 422" d="M1259.512,666.589a.8.8,0,0,1-.905-.679.779.779,0,0,1,0-.226V608.056a.9.9,0,0,1,1.81,0v57.631a.8.8,0,0,1-.679.9A.779.779,0,0,1,1259.512,666.589Z" transform="translate(-1234.168 -598.401)" fill="#c4c4c4"/>
        <path id="Path_423" data-name="Path 423" d="M1266.75,620.427a8.112,8.112,0,0,1-8.146-8.078v-.068a.9.9,0,0,1,1.81,0v0a6.187,6.187,0,0,0,6.034,6.336c.1,0,.2,0,.3,0a.905.905,0,0,1,0,1.81Z" transform="translate(-1241.401 -598.401)" fill="#c4c4c4"/>
        <path id="Path_424" data-name="Path 424" d="M1252.272,626.763a.905.905,0,0,1,0-1.81h0a6.187,6.187,0,0,0,6.336-6.034c0-.1,0-.2,0-.3a.905.905,0,0,1,1.81,0v0A8.31,8.31,0,0,1,1252.272,626.763Z" transform="translate(-1226.928 -598.401)" fill="#c4c4c4"/>
        <path id="Path_425" data-name="Path 425" d="M1273.993,635.211a15.452,15.452,0,0,1-15.388-15.388.905.905,0,0,1,1.81,0v0A13.521,13.521,0,0,0,1273.88,633.4h.112a.905.905,0,0,1,0,1.81Z" transform="translate(-1248.644 -598.401)" fill="#c4c4c4"/>
        <path id="Path_426" data-name="Path 426" d="M1245.026,641.245a.9.9,0,0,1,0-1.81A13.521,13.521,0,0,0,1258.6,625.97v-.112a.905.905,0,0,1,1.81,0v0a15.075,15.075,0,0,1-14.756,15.387C1245.445,641.249,1245.235,641.249,1245.026,641.245Z" transform="translate(-1219.682 -598.401)" fill="#c4c4c4"/>
      </g>
    </g>
  </g>
</svg>
