<svg xmlns="http://www.w3.org/2000/svg" width="375" height="227.433" viewBox="0 0 375 227.433">
  <g id="Group_960" data-name="Group 960" transform="translate(-1060.257 -1320.034)">
    <path id="Path_1875" data-name="Path 1875" d="M1435.257,1349.677a30.405,30.405,0,0,0-30.288,30.52v165.392a30.405,30.405,0,0,1-30.289,30.521H1060.257" transform="translate(0 -29.143)" fill="none" stroke="#fff" stroke-width="1"/>
    <g id="Group_957" data-name="Group 957" transform="translate(1211.499 1503.643)">
      <path id="Path_1876" data-name="Path 1876" d="M1359.005,1660.6l-18.208-9.82-15.782,9.82H1366" transform="translate(-1325.015 -1650.779)" fill="none" stroke="#fff" stroke-miterlimit="22.926" stroke-width="1.507"/>
      <line id="Line_745" data-name="Line 745" y2="9.714" transform="translate(15.783 0)" fill="none" stroke="#fff" stroke-miterlimit="22.926" stroke-width="1.507"/>
      <path id="Path_1877" data-name="Path 1877" d="M1352.885,1666.927v6.5h-13.8v-6.5" transform="translate(-1330.593 -1657.107)" fill="none" stroke="#fff" stroke-miterlimit="22.926" stroke-width="1.507"/>
      <line id="Line_746" data-name="Line 746" y1="26.879" transform="translate(19.801 16.32)" fill="none" stroke="#fff" stroke-miterlimit="22.926" stroke-width="1.507"/>
      <path id="Path_1878" data-name="Path 1878" d="M1351.986,1704.7l-8.887-8.792,8.887-9.159-8.887-8.158v26.285" transform="translate(-1332.185 -1661.679)" fill="none" stroke="#fff" stroke-miterlimit="22.926" stroke-width="1.507"/>
      <line id="Line_747" data-name="Line 747" y2="9.069" transform="translate(37.49 9.82)" fill="none" stroke="#fff" stroke-miterlimit="22.926" stroke-width="1.507"/>
      <rect id="Rectangle_409" data-name="Rectangle 409" width="8.056" height="8.117" transform="translate(33.461 18.854)" fill="none" stroke="#fff" stroke-miterlimit="22.926" stroke-width="1.507"/>
    </g>
    <g id="Group_958" data-name="Group 958" transform="translate(1260.208 1503.809)">
      <path id="Path_1879" data-name="Path 1879" d="M1405.724,1701.047v-32.332H1429v32.332" transform="translate(-1405.724 -1657.974)" fill="none" stroke="#fff" stroke-miterlimit="22.926" stroke-width="1.507"/>
      <rect id="Rectangle_410" data-name="Rectangle 410" width="16.148" height="2.797" transform="translate(3.41 13.775)" fill="none" stroke="#fff" stroke-miterlimit="22.926" stroke-width="1.507"/>
      <rect id="Rectangle_411" data-name="Rectangle 411" width="16.148" height="2.797" transform="translate(3.41 19.319)" fill="none" stroke="#fff" stroke-miterlimit="22.926" stroke-width="1.507"/>
      <rect id="Rectangle_412" data-name="Rectangle 412" width="16.148" height="2.797" transform="translate(3.41 24.865)" fill="none" stroke="#fff" stroke-miterlimit="22.926" stroke-width="1.507"/>
      <rect id="Rectangle_413" data-name="Rectangle 413" width="16.148" height="2.797" transform="translate(3.41 30.409)" fill="none" stroke="#fff" stroke-miterlimit="22.926" stroke-width="1.507"/>
      <rect id="Rectangle_414" data-name="Rectangle 414" width="20.107" height="4.235" transform="translate(16.701)" fill="none" stroke="#fff" stroke-miterlimit="22.926" stroke-width="1.507"/>
      <line id="Line_748" data-name="Line 748" y1="38.836" transform="translate(35.125 4.235)" fill="none" stroke="#fff" stroke-miterlimit="22.926" stroke-width="1.507"/>
      <line id="Line_749" data-name="Line 749" y2="6.504" transform="translate(18.315 4.236)" fill="none" stroke="#fff" stroke-miterlimit="22.926" stroke-width="1.507"/>
      <rect id="Rectangle_415" data-name="Rectangle 415" width="4.051" height="4.082" transform="translate(21.25 6.66)" fill="none" stroke="#fff" stroke-miterlimit="22.926" stroke-width="1.507"/>
      <rect id="Rectangle_416" data-name="Rectangle 416" width="2.026" height="4.082" transform="translate(23.276 13.69)" fill="none" stroke="#fff" stroke-miterlimit="22.926" stroke-width="1.507"/>
      <rect id="Rectangle_417" data-name="Rectangle 417" width="4.051" height="4.082" transform="translate(28.207 6.66)" fill="none" stroke="#fff" stroke-miterlimit="22.926" stroke-width="1.507"/>
      <rect id="Rectangle_418" data-name="Rectangle 418" width="4.051" height="4.082" transform="translate(28.207 13.69)" fill="none" stroke="#fff" stroke-miterlimit="22.926" stroke-width="1.507"/>
      <rect id="Rectangle_419" data-name="Rectangle 419" width="2.026" height="4.082" transform="translate(23.276 21.267)" fill="none" stroke="#fff" stroke-miterlimit="22.926" stroke-width="1.507"/>
      <rect id="Rectangle_420" data-name="Rectangle 420" width="4.051" height="4.082" transform="translate(28.207 21.267)" fill="none" stroke="#fff" stroke-miterlimit="22.926" stroke-width="1.507"/>
      <rect id="Rectangle_421" data-name="Rectangle 421" width="2.026" height="4.083" transform="translate(23.276 28.846)" fill="none" stroke="#fff" stroke-miterlimit="22.926" stroke-width="1.507"/>
      <rect id="Rectangle_422" data-name="Rectangle 422" width="4.051" height="4.083" transform="translate(28.207 28.846)" fill="none" stroke="#fff" stroke-miterlimit="22.926" stroke-width="1.507"/>
      <path id="Path_1880" data-name="Path 1880" d="M1451.566,1717.74v-6.424h-7.274" transform="translate(-1421.016 -1674.668)" fill="none" stroke="#fff" stroke-miterlimit="22.926" stroke-width="1.507"/>
      <line id="Line_750" data-name="Line 750" x1="16.148" transform="translate(3.411 36.648)" fill="none" stroke="#fff" stroke-miterlimit="22.926" stroke-width="1.507"/>
      <line id="Line_751" data-name="Line 751" y2="6.424" transform="translate(16.926 36.648)" fill="none" stroke="#fff" stroke-miterlimit="22.926" stroke-width="1.507"/>
      <line id="Line_752" data-name="Line 752" y2="6.424" transform="translate(5.997 36.61)" fill="none" stroke="#fff" stroke-miterlimit="22.926" stroke-width="1.507"/>
    </g>
    <g id="Group_959" data-name="Group 959" transform="translate(1110.745 1508.345)">
      <path id="Path_1881" data-name="Path 1881" d="M1176.507,1687.7c-3-6.277-3.905-19.315,3.476-28.639l.435-.55.435.55c7.382,9.327,6.479,22.36,3.481,28.633-1.126,2.356-2.517,3.654-3.916,3.654s-2.786-1.3-3.91-3.649m1-.486c.9,1.888,1.99,3.013,2.908,3.013s2.01-1.127,2.914-3.019c2.73-5.717,3.618-18.064-2.914-26.88-6.531,8.816-5.641,21.167-2.908,26.885" transform="translate(-1164.501 -1658.511)" fill="#002e3d"/>
      <path id="Path_1882" data-name="Path 1882" d="M1184.078,1705.458a.558.558,0,0,0,.556-.561v-23.771a.557.557,0,1,0-1.114,0V1704.9a.558.558,0,0,0,.557.561" transform="translate(-1168.16 -1667.154)" fill="#002e3d"/>
      <path id="Path_1883" data-name="Path 1883" d="M1196.624,1693.307c-2.3-4.815-2.994-14.812,2.665-21.962l.434-.55.433.55c5.662,7.15,4.969,17.144,2.67,21.957-.882,1.844-1.984,2.859-3.1,2.859s-2.219-1.012-3.1-2.854m1-.485c.664,1.389,1.45,2.219,2.1,2.219s1.435-.832,2.1-2.224c2.052-4.295,2.729-13.535-2.1-20.2-4.827,6.662-4.15,15.906-2.1,20.2" transform="translate(-1172.682 -1663.325)" fill="#002e3d"/>
      <path id="Path_1884" data-name="Path 1884" d="M1202.509,1708.588a.558.558,0,0,0,.556-.561v-18.914a.556.556,0,1,0-1.113,0v18.914a.558.558,0,0,0,.556.561" transform="translate(-1175.469 -1670.283)" fill="#002e3d"/>
      <path id="Path_1885" data-name="Path 1885" d="M1159.769,1693.307c-2.3-4.815-3-14.812,2.665-21.962l.435-.55.433.55c5.662,7.15,4.969,17.144,2.67,21.957-.882,1.844-1.984,2.859-3.1,2.859s-2.221-1.012-3.1-2.854m1-.485c.664,1.389,1.448,2.219,2.1,2.219s1.435-.832,2.1-2.224c2.051-4.295,2.728-13.535-2.1-20.2-4.828,6.662-4.151,15.906-2.1,20.2" transform="translate(-1158.069 -1663.325)" fill="#002e3d"/>
      <path id="Path_1886" data-name="Path 1886" d="M1165.655,1708.588a.558.558,0,0,0,.557-.561v-18.914a.557.557,0,1,0-1.114,0v18.914a.559.559,0,0,0,.557.561" transform="translate(-1160.856 -1670.283)" fill="#002e3d"/>
    </g>
  </g>
</svg>
