<svg xmlns="http://www.w3.org/2000/svg" width="375.248" height="134.957" viewBox="0 0 375.248 134.957">
  <g id="Group_1292" data-name="Group 1292" transform="translate(-1091.951 -208.896)">
    <g id="Group_956" data-name="Group 956" transform="translate(1080 141)">
      <path id="Path_1858" data-name="Path 1858" d="M1468.053,333.761h-197.1a23.071,23.071,0,0,1-23.071-23.071V255.852a23.071,23.071,0,0,0-23.071-23.071H1092.8" transform="translate(-1080.853 -131.444)" fill="none" stroke="#6a900a" stroke-width="1"/>
      <g id="Group_954" data-name="Group 954" transform="translate(197.912 183.629)">
        <line id="Line_740" data-name="Line 740" x1="15.602" transform="translate(11.145 16.345)" fill="none" stroke="#6a900a" stroke-miterlimit="10" stroke-width="1.3"/>
        <path id="Path_1859" data-name="Path 1859" d="M1528,549.224h-1.486a.743.743,0,0,1-.743-.743v-10.4A2.229,2.229,0,0,1,1528,535.85h28.233a3.715,3.715,0,0,1,3.714,3.715v8.916a.743.743,0,0,1-.743.743h-2.229" transform="translate(-1525.772 -532.878)" fill="none" stroke="#6a900a" stroke-miterlimit="10" stroke-width="1.3"/>
        <path id="Path_1860" data-name="Path 1860" d="M1535.06,562.232a2.229,2.229,0,1,1-2.229-2.229A2.229,2.229,0,0,1,1535.06,562.232Z" transform="translate(-1528.373 -545.886)" fill="none" stroke="#6a900a" stroke-miterlimit="10" stroke-width="1.3"/>
        <path id="Path_1861" data-name="Path 1861" d="M1544.722,562.232a2.229,2.229,0,1,1-2.229-2.229A2.229,2.229,0,0,1,1544.722,562.232Z" transform="translate(-1533.577 -545.886)" fill="none" stroke="#6a900a" stroke-miterlimit="10" stroke-width="1.3"/>
        <path id="Path_1862" data-name="Path 1862" d="M1588.2,562.232a2.229,2.229,0,1,1-2.229-2.229A2.229,2.229,0,0,1,1588.2,562.232Z" transform="translate(-1556.992 -545.886)" fill="none" stroke="#6a900a" stroke-miterlimit="10" stroke-width="1.3"/>
        <path id="Path_1863" data-name="Path 1863" d="M1583.739,540.681l1.506,4.015a2.972,2.972,0,0,0,2.783,1.928h3.141" transform="translate(-1556.992 -535.48)" fill="none" stroke="#6a900a" stroke-miterlimit="10" stroke-width="1.3"/>
        <line id="Line_741" data-name="Line 741" x1="5.201" transform="translate(21.546 11.145)" fill="none" stroke="#6a900a" stroke-miterlimit="10" stroke-width="1.3"/>
        <line id="Line_742" data-name="Line 742" x1="14.859" transform="translate(0 11.145)" fill="none" stroke="#6a900a" stroke-miterlimit="10" stroke-width="1.3"/>
        <line id="Line_743" data-name="Line 743" y2="13.374" transform="translate(21.546 2.972)" fill="none" stroke="#6a900a" stroke-miterlimit="10" stroke-width="1.3"/>
        <line id="Line_744" data-name="Line 744" y2="13.374" transform="translate(14.859 2.972)" fill="none" stroke="#6a900a" stroke-miterlimit="10" stroke-width="1.3"/>
        <path id="Path_1864" data-name="Path 1864" d="M1551.535,532.381v-2.972h10.4l2.972,2.972" transform="translate(-1539.647 -529.409)" fill="none" stroke="#6a900a" stroke-miterlimit="10" stroke-width="1.3"/>
      </g>
      <g id="Group_955" data-name="Group 955" transform="translate(239.678 171.267)">
        <path id="Path_1865" data-name="Path 1865" d="M1765.579,537.547a8.453,8.453,0,1,0-5.845-14.556.415.415,0,0,0,.574.6,7.619,7.619,0,1,1-2.208,6.974.416.416,0,0,0-.816.158,8.467,8.467,0,0,0,8.295,6.824" transform="translate(-1737.44 -512.325)" fill="#c4c4c4"/>
        <path id="Path_1866" data-name="Path 1866" d="M1774.785,548.6a.416.416,0,0,0,.417-.416V530.758a.416.416,0,0,0-.833,0v17.426a.416.416,0,0,0,.416.416" transform="translate(-1746.646 -517.55)" fill="#c4c4c4"/>
        <path id="Path_1867" data-name="Path 1867" d="M1774.785,538.759a4.3,4.3,0,0,0,4.3-4.3.416.416,0,0,0-.833,0,3.468,3.468,0,0,1-3.465,3.465.417.417,0,0,0,0,.833" transform="translate(-1746.646 -519.544)" fill="#c4c4c4"/>
        <path id="Path_1868" data-name="Path 1868" d="M1770.254,544.916a.416.416,0,1,0,0-.831,3.471,3.471,0,0,1-3.466-3.465.416.416,0,1,0-.831,0,4.3,4.3,0,0,0,4.3,4.3" transform="translate(-1742.116 -522.861)" fill="#c4c4c4"/>
        <path id="Path_1869" data-name="Path 1869" d="M1714.287,514.123a11.505,11.505,0,1,1,11.5,11.5,11.517,11.517,0,0,1-11.5-11.5m.832,0a10.674,10.674,0,1,0,10.673-10.673,10.686,10.686,0,0,0-10.673,10.673" transform="translate(-1714.287 -502.618)" fill="#c4c4c4"/>
        <path id="Path_1870" data-name="Path 1870" d="M1738.736,538.2a.416.416,0,0,0,.416-.416V511.443a.416.416,0,0,0-.832,0v26.338a.416.416,0,0,0,.416.416" transform="translate(-1727.231 -507.147)" fill="#c4c4c4"/>
        <path id="Path_1871" data-name="Path 1871" d="M1738.736,519.391a3.747,3.747,0,0,0,3.744-3.744.417.417,0,0,0-.833,0,2.914,2.914,0,0,1-2.911,2.912.416.416,0,0,0,0,.832" transform="translate(-1727.231 -509.411)" fill="#c4c4c4"/>
        <path id="Path_1872" data-name="Path 1872" d="M1734.852,525.4a.416.416,0,1,0,0-.831,2.914,2.914,0,0,1-2.911-2.911.416.416,0,1,0-.833,0,3.747,3.747,0,0,0,3.743,3.742" transform="translate(-1723.347 -512.647)" fill="#c4c4c4"/>
        <path id="Path_1873" data-name="Path 1873" d="M1738.736,529.929a7.077,7.077,0,0,0,7.07-7.07.416.416,0,0,0-.832,0,6.246,6.246,0,0,1-6.239,6.238.416.416,0,1,0,0,.831" transform="translate(-1727.231 -513.296)" fill="#c4c4c4"/>
        <path id="Path_1874" data-name="Path 1874" d="M1730.969,535.937a.416.416,0,0,0,0-.831,6.246,6.246,0,0,1-6.238-6.238.416.416,0,0,0-.832,0,7.078,7.078,0,0,0,7.07,7.07" transform="translate(-1719.464 -516.532)" fill="#c4c4c4"/>
      </g>
    </g>
    <g id="Group_1192" data-name="Group 1192" transform="translate(1103.559 211.831)">
      <path id="Path_1850" data-name="Path 1850" d="M405.719,788.1h11.267v1.989l-1.325,1.325v11.268" transform="translate(-386.496 -772.194)" fill="none" stroke="#6a900a" stroke-miterlimit="10" stroke-width="1.507"/>
      <path id="Path_1851" data-name="Path 1851" d="M405.163,774.95V767a4.089,4.089,0,0,0-1.989-3.313h-2.65A4.086,4.086,0,0,0,398.535,767v3.977" transform="translate(-382.627 -759.043)" fill="none" stroke="#6a900a" stroke-miterlimit="10" stroke-width="1.507"/>
      <path id="Path_1852" data-name="Path 1852" d="M412.347,768.209V754.953a1.325,1.325,0,0,0-1.327-1.325h-3.976a1.324,1.324,0,0,0-1.325,1.325v1.326" transform="translate(-386.496 -753.628)" fill="none" stroke="#6a900a" stroke-miterlimit="10" stroke-width="1.507"/>
      <path id="Path_1853" data-name="Path 1853" d="M372.68,771.525v-7.954a1.325,1.325,0,0,1,1.325-1.325h3.977a1.326,1.326,0,0,1,1.325,1.325V764.9" transform="translate(-368.702 -758.269)" fill="none" stroke="#6a900a" stroke-miterlimit="10" stroke-width="1.507"/>
      <line id="Line_730" data-name="Line 730" x2="1.989" transform="translate(23.862 7.291)" fill="none" stroke="#6a900a" stroke-miterlimit="10" stroke-width="1.507"/>
      <line id="Line_731" data-name="Line 731" x2="2.65" transform="translate(17.897 2.65)" fill="none" stroke="#6a900a" stroke-miterlimit="10" stroke-width="1.507"/>
      <path id="Path_1854" data-name="Path 1854" d="M370.024,797.935h-5.966v-2.651h11.268" transform="translate(-364.058 -776.063)" fill="none" stroke="#6a900a" stroke-miterlimit="10" stroke-width="1.507"/>
      <path id="Path_1855" data-name="Path 1855" d="M399.972,797.935h4.639v-2.651H401.3" transform="translate(-383.4 -776.063)" fill="none" stroke="#6a900a" stroke-miterlimit="10" stroke-width="1.507"/>
      <line id="Line_732" data-name="Line 732" x1="6.628" transform="translate(7.292 7.291)" fill="none" stroke="#6a900a" stroke-miterlimit="10" stroke-width="1.507"/>
      <path id="Path_1856" data-name="Path 1856" d="M385.395,801.026a9.944,9.944,0,0,1-19.71,0" transform="translate(-364.934 -779.156)" fill="none" stroke="#6a900a" stroke-miterlimit="10" stroke-width="1.507"/>
      <path id="Path_1857" data-name="Path 1857" d="M365.688,781.357a9.843,9.843,0,0,1,6.54-7.952v-1.989h1.325v-1.988h3.978v1.988h1.324v1.989a9.845,9.845,0,0,1,6.542,7.954" transform="translate(-364.936 -762.138)" fill="none" stroke="#6a900a" stroke-miterlimit="10" stroke-width="1.507"/>
      <line id="Line_733" data-name="Line 733" x2="1.989" transform="translate(23.862 10.604)" fill="none" stroke="#6a900a" stroke-miterlimit="10" stroke-width="1.507"/>
      <line id="Line_734" data-name="Line 734" y2="4.639" transform="translate(28.501 10.604)" fill="none" stroke="#6a900a" stroke-miterlimit="10" stroke-width="1.507"/>
      <line id="Line_735" data-name="Line 735" x1="5.966" transform="translate(23.199 19.221)" fill="none" stroke="#6a900a" stroke-miterlimit="10" stroke-width="1.507"/>
      <line id="Line_736" data-name="Line 736" x1="1.325" transform="translate(11.27 9.278)" fill="none" stroke="#6a900a" stroke-miterlimit="10" stroke-width="1.507"/>
      <line id="Line_737" data-name="Line 737" x1="1.325" transform="translate(8.618 9.278)" fill="none" stroke="#6a900a" stroke-miterlimit="10" stroke-width="1.507"/>
      <line id="Line_738" data-name="Line 738" y2="1.987" transform="translate(23.199 25.849)" fill="none" stroke="#6a900a" stroke-miterlimit="10" stroke-width="1.507"/>
      <line id="Line_739" data-name="Line 739" y2="1.987" transform="translate(25.851 25.849)" fill="none" stroke="#6a900a" stroke-miterlimit="10" stroke-width="1.507"/>
    </g>
    <g id="Group_1193" data-name="Group 1193" transform="translate(1371.693 310.481)">
      <path id="Path_1879" data-name="Path 1879" d="M1405.724,1693.248v-24.532h17.8v24.532" transform="translate(-1405.724 -1660.566)" fill="none" stroke="#6a900a" stroke-miterlimit="22.926" stroke-width="1.507"/>
      <rect id="Rectangle_410" data-name="Rectangle 410" width="12.346" height="2.122" transform="translate(2.607 10.452)" fill="none" stroke="#6a900a" stroke-miterlimit="22.926" stroke-width="1.507"/>
      <rect id="Rectangle_411" data-name="Rectangle 411" width="12.346" height="2.122" transform="translate(2.607 14.658)" fill="none" stroke="#6a900a" stroke-miterlimit="22.926" stroke-width="1.507"/>
      <rect id="Rectangle_412" data-name="Rectangle 412" width="12.346" height="2.122" transform="translate(2.607 18.866)" fill="none" stroke="#6a900a" stroke-miterlimit="22.926" stroke-width="1.507"/>
      <rect id="Rectangle_413" data-name="Rectangle 413" width="12.346" height="2.122" transform="translate(2.607 23.073)" fill="none" stroke="#6a900a" stroke-miterlimit="22.926" stroke-width="1.507"/>
      <rect id="Rectangle_414" data-name="Rectangle 414" width="15.373" height="3.214" transform="translate(12.769 0)" fill="none" stroke="#6a900a" stroke-miterlimit="22.926" stroke-width="1.507"/>
      <line id="Line_748" data-name="Line 748" y1="29.467" transform="translate(26.855 3.214)" fill="none" stroke="#6a900a" stroke-miterlimit="22.926" stroke-width="1.507"/>
      <line id="Line_749" data-name="Line 749" y2="4.935" transform="translate(14.003 3.214)" fill="none" stroke="#6a900a" stroke-miterlimit="22.926" stroke-width="1.507"/>
      <rect id="Rectangle_415" data-name="Rectangle 415" width="3.097" height="3.097" transform="translate(16.247 5.053)" fill="none" stroke="#6a900a" stroke-miterlimit="22.926" stroke-width="1.507"/>
      <rect id="Rectangle_416" data-name="Rectangle 416" width="1.549" height="3.097" transform="translate(17.796 10.388)" fill="none" stroke="#6a900a" stroke-miterlimit="22.926" stroke-width="1.507"/>
      <rect id="Rectangle_417" data-name="Rectangle 417" width="3.097" height="3.097" transform="translate(21.566 5.053)" fill="none" stroke="#6a900a" stroke-miterlimit="22.926" stroke-width="1.507"/>
      <rect id="Rectangle_418" data-name="Rectangle 418" width="3.097" height="3.097" transform="translate(21.566 10.388)" fill="none" stroke="#6a900a" stroke-miterlimit="22.926" stroke-width="1.507"/>
      <rect id="Rectangle_419" data-name="Rectangle 419" width="1.549" height="3.097" transform="translate(17.796 16.137)" fill="none" stroke="#6a900a" stroke-miterlimit="22.926" stroke-width="1.507"/>
      <rect id="Rectangle_420" data-name="Rectangle 420" width="3.097" height="3.097" transform="translate(21.566 16.137)" fill="none" stroke="#6a900a" stroke-miterlimit="22.926" stroke-width="1.507"/>
      <rect id="Rectangle_421" data-name="Rectangle 421" width="1.549" height="3.098" transform="translate(17.796 21.887)" fill="none" stroke="#6a900a" stroke-miterlimit="22.926" stroke-width="1.507"/>
      <rect id="Rectangle_422" data-name="Rectangle 422" width="3.097" height="3.098" transform="translate(21.566 21.887)" fill="none" stroke="#6a900a" stroke-miterlimit="22.926" stroke-width="1.507"/>
      <path id="Path_1880" data-name="Path 1880" d="M1449.854,1716.19v-4.874h-5.561" transform="translate(-1426.496 -1683.509)" fill="none" stroke="#6a900a" stroke-miterlimit="22.926" stroke-width="1.507"/>
      <line id="Line_750" data-name="Line 750" x1="12.346" transform="translate(2.608 27.807)" fill="none" stroke="#6a900a" stroke-miterlimit="22.926" stroke-width="1.507"/>
      <line id="Line_751" data-name="Line 751" y2="4.874" transform="translate(12.941 27.807)" fill="none" stroke="#6a900a" stroke-miterlimit="22.926" stroke-width="1.507"/>
      <line id="Line_752" data-name="Line 752" y2="4.874" transform="translate(4.585 27.778)" fill="none" stroke="#6a900a" stroke-miterlimit="22.926" stroke-width="1.507"/>
    </g>
    <g id="Group_1194" data-name="Group 1194" transform="translate(1191.412 209.765)">
      <path id="Path_1876" data-name="Path 1876" d="M1351,1658.23l-13.921-7.451-12.066,7.451h31.336" transform="translate(-1325.015 -1650.78)" fill="none" stroke="#6a900a" stroke-miterlimit="22.926" stroke-width="1.507"/>
      <line id="Line_745" data-name="Line 745" y2="7.37" transform="translate(12.067 0)" fill="none" stroke="#6a900a" stroke-miterlimit="22.926" stroke-width="1.507"/>
      <path id="Path_1877" data-name="Path 1877" d="M1349.636,1666.927v4.934h-10.552v-4.934" transform="translate(-1332.592 -1659.476)" fill="none" stroke="#6a900a" stroke-miterlimit="22.926" stroke-width="1.507"/>
      <line id="Line_746" data-name="Line 746" y1="20.395" transform="translate(15.139 12.383)" fill="none" stroke="#6a900a" stroke-miterlimit="22.926" stroke-width="1.507"/>
      <path id="Path_1878" data-name="Path 1878" d="M1349.894,1698.4l-6.794-6.671,6.794-6.949-6.794-6.19v19.944" transform="translate(-1334.755 -1665.76)" fill="none" stroke="#6a900a" stroke-miterlimit="22.926" stroke-width="1.507"/>
      <line id="Line_747" data-name="Line 747" y2="6.881" transform="translate(28.663 7.451)" fill="none" stroke="#6a900a" stroke-miterlimit="22.926" stroke-width="1.507"/>
      <rect id="Rectangle_409" data-name="Rectangle 409" width="6.159" height="6.159" transform="translate(25.583 14.306)" fill="none" stroke="#6a900a" stroke-miterlimit="22.926" stroke-width="1.507"/>
    </g>
    <g id="Group_1195" data-name="Group 1195" transform="translate(1153.6 213.333)">
      <path id="Path_1881" data-name="Path 1881" d="M1175.986,1680.658c-2.295-4.763-2.986-14.656,2.657-21.73l.332-.418.333.418c5.644,7.077,4.953,16.965,2.661,21.726-.861,1.788-1.924,2.772-2.994,2.772s-2.13-.983-2.99-2.768m.766-.369c.688,1.432,1.521,2.286,2.224,2.286s1.536-.856,2.228-2.291c2.088-4.337,2.766-13.706-2.228-20.395-4.994,6.689-4.313,16.06-2.224,20.4" transform="translate(-1166.806 -1658.511)" fill="#c4c4c4"/>
      <path id="Path_1882" data-name="Path 1882" d="M1183.947,1699.453a.425.425,0,0,0,.425-.426v-18.036a.426.426,0,1,0-.851,0v18.036a.425.425,0,0,0,.426.426" transform="translate(-1171.777 -1670.389)" fill="#c4c4c4"/>
      <path id="Path_1883" data-name="Path 1883" d="M1196.224,1687.876c-1.758-3.653-2.289-11.239,2.037-16.664l.332-.417.331.417c4.329,5.425,3.8,13.008,2.042,16.659-.674,1.4-1.517,2.17-2.373,2.17s-1.7-.768-2.369-2.166m.766-.368c.508,1.054,1.108,1.684,1.6,1.684s1.1-.631,1.606-1.688c1.569-3.258,2.086-10.27-1.606-15.324-3.69,5.055-3.173,12.069-1.6,15.329" transform="translate(-1177.919 -1665.127)" fill="#c4c4c4"/>
      <path id="Path_1884" data-name="Path 1884" d="M1202.379,1703.755a.425.425,0,0,0,.425-.426v-14.351a.425.425,0,1,0-.851,0v14.351a.425.425,0,0,0,.425.426" transform="translate(-1181.704 -1674.691)" fill="#c4c4c4"/>
      <path id="Path_1885" data-name="Path 1885" d="M1159.369,1687.876c-1.759-3.653-2.291-11.239,2.037-16.664l.333-.417.331.417c4.329,5.425,3.8,13.008,2.041,16.659-.675,1.4-1.517,2.17-2.372,2.17s-1.7-.768-2.37-2.166m.766-.368c.508,1.054,1.107,1.684,1.6,1.684s1.1-.631,1.606-1.688c1.568-3.258,2.086-10.27-1.606-15.324-3.691,5.055-3.174,12.069-1.6,15.329" transform="translate(-1158.069 -1665.127)" fill="#c4c4c4"/>
      <path id="Path_1886" data-name="Path 1886" d="M1165.524,1703.755a.425.425,0,0,0,.425-.426v-14.351a.426.426,0,0,0-.851,0v14.351a.425.425,0,0,0,.426.426" transform="translate(-1161.855 -1674.691)" fill="#c4c4c4"/>
    </g>
  </g>
</svg>
