<svg id="Group_1494" data-name="Group 1494" xmlns="http://www.w3.org/2000/svg" xmlns:xlink="http://www.w3.org/1999/xlink" width="375" height="216.957" viewBox="0 0 375 216.957">
  <defs>
    <clipPath id="clip-path">
      <rect id="Rectangle_560" data-name="Rectangle 560" width="375" height="216.957" fill="none"/>
    </clipPath>
  </defs>
  <g id="Group_1493" data-name="Group 1493" clip-path="url(#clip-path)">
    <path id="Path_2536" data-name="Path 2536" d="M386.779,433.627a3.389,3.389,0,0,1-3.535-3.362q-.01-.267-.01-.537a11.728,11.728,0,0,1,3-8.314.782.782,0,0,1,1.085,0,11.735,11.735,0,0,1,3,8.314q0,.27-.01.537a3.389,3.389,0,0,1-3.534,3.363m0-11.4a10.9,10.9,0,0,0-2.59,7.505c0,.169,0,.337.009.5a2.584,2.584,0,0,0,5.159,0c.006-.167.009-.334.009-.5a10.908,10.908,0,0,0-2.588-7.505" transform="translate(-200.125 -219.948)" fill="#001117"/>
    <path id="Path_2537" data-name="Path 2537" d="M390.13,443.792a.477.477,0,0,1-.478-.478v-7.65a.478.478,0,0,1,.956,0v7.65a.477.477,0,0,1-.478.478" transform="translate(-203.476 -227.255)" fill="#001117"/>
    <path id="Path_2538" data-name="Path 2538" d="M419.3,437.582a2.794,2.794,0,0,1-2.882-2.743q-.008-.212-.008-.426A9.329,9.329,0,0,1,418.8,427.8a.719.719,0,0,1,1,0,9.333,9.333,0,0,1,2.391,6.613c0,.143,0,.285-.008.425a2.794,2.794,0,0,1-2.883,2.744m0-8.925a8.548,8.548,0,0,0-1.936,5.756c0,.131,0,.263.007.393a1.93,1.93,0,0,0,3.854,0c0-.129.007-.26.007-.392a8.559,8.559,0,0,0-1.933-5.756" transform="translate(-217.447 -223.292)" fill="#001117"/>
    <path id="Path_2539" data-name="Path 2539" d="M421.932,445.577a.477.477,0,0,1-.478-.478v-6.017a.478.478,0,0,1,.956,0V445.1a.477.477,0,0,1-.478.478" transform="translate(-220.083 -229.039)" fill="#001117"/>
    <path id="Path_2540" data-name="Path 2540" d="M403.2,422.822a4,4,0,0,1-4.177-3.972c-.008-.213-.012-.429-.012-.646,0-4.062,1.348-7.8,3.6-9.989a.847.847,0,0,1,1.172,0c2.254,2.194,3.6,5.928,3.6,9.988,0,.217,0,.432-.012.647a4,4,0,0,1-4.176,3.971m0-13.842c-2.027,2.028-3.234,5.465-3.234,9.224q0,.308.011.612a3.227,3.227,0,0,0,6.444,0q.011-.3.011-.613c0-3.759-1.206-7.2-3.231-9.224" transform="translate(-208.365 -213.047)" fill="#001117"/>
    <path id="Path_2541" data-name="Path 2541" d="M407.257,438.9a.477.477,0,0,1-.478-.478V426.294a.478.478,0,1,1,.956,0v12.126a.477.477,0,0,1-.478.478" transform="translate(-212.42 -222.361)" fill="#001117"/>
    <path id="Path_2542" data-name="Path 2542" d="M624.947,421.4H604.332a.478.478,0,0,1-.478-.478V392.506a.478.478,0,0,1,.478-.478h20.615a.477.477,0,0,1,.478.478v28.418a.478.478,0,0,1-.478.478m-20.137-.956h19.659V392.983H604.81Z" transform="translate(-315.332 -204.717)" fill="#6a900a"/>
    <path id="Path_2543" data-name="Path 2543" d="M625.53,401.025h-14.3a.478.478,0,0,1-.478-.478v-2.459a.477.477,0,0,1,.478-.478h14.3a.477.477,0,0,1,.478.478v2.459a.478.478,0,0,1-.478.478m-13.826-.956h13.348v-1.5H611.7Z" transform="translate(-318.932 -207.632)" fill="#6a900a"/>
    <path id="Path_2544" data-name="Path 2544" d="M625.53,411.226h-14.3a.478.478,0,0,1-.478-.478v-2.46a.478.478,0,0,1,.478-.478h14.3a.478.478,0,0,1,.478.478v2.46a.478.478,0,0,1-.478.478m-13.826-.956h13.348v-1.5H611.7Z" transform="translate(-318.932 -212.959)" fill="#6a900a"/>
    <path id="Path_2545" data-name="Path 2545" d="M625.53,421.428h-14.3a.477.477,0,0,1-.478-.478v-2.459a.478.478,0,0,1,.478-.478h14.3a.478.478,0,0,1,.478.478v2.459a.477.477,0,0,1-.478.478m-13.826-.956h13.348v-1.5H611.7Z" transform="translate(-318.932 -218.286)" fill="#6a900a"/>
    <path id="Path_2546" data-name="Path 2546" d="M625.53,431.629h-14.3a.478.478,0,0,1-.478-.478v-2.459a.477.477,0,0,1,.478-.478h14.3a.477.477,0,0,1,.478.478v2.459a.478.478,0,0,1-.478.478m-13.826-.956h13.348v-1.5H611.7Z" transform="translate(-318.932 -223.613)" fill="#6a900a"/>
    <path id="Path_2547" data-name="Path 2547" d="M597.376,380.253H580.344a.477.477,0,0,1-.478-.478v-3.559a.477.477,0,0,1,.478-.478h17.032a.478.478,0,0,1,.478.478v3.559a.478.478,0,0,1-.478.478m-16.554-.956H596.9v-2.6H580.822Z" transform="translate(-302.806 -196.211)" fill="#6a900a"/>
    <path id="Path_2548" data-name="Path 2548" d="M593.366,416.789H583.332a.478.478,0,0,1-.478-.478V383.666a.478.478,0,0,1,.956,0v32.168h9.556a.478.478,0,1,1,0,.956" transform="translate(-304.366 -200.101)" fill="#6a900a"/>
    <path id="Path_2549" data-name="Path 2549" d="M613.124,388.367a.478.478,0,0,1-.478-.478v-4.224a.478.478,0,0,1,.956,0v4.224a.478.478,0,0,1-.478.478" transform="translate(-319.924 -200.101)" fill="#6a900a"/>
    <path id="Path_2550" data-name="Path 2550" d="M602.46,391.834h-1.716a.478.478,0,0,1-.478-.478v-3.431a.478.478,0,0,1,.478-.478h3.431a.478.478,0,0,1,.478.478v2.188a.478.478,0,1,1-.956,0V388.4h-2.475v2.475h1.238a.478.478,0,0,1,0,.956" transform="translate(-313.459 -202.325)" fill="#6a900a"/>
    <path id="Path_2551" data-name="Path 2551" d="M602.463,404.211h-1.717a.478.478,0,0,1-.478-.478V400.3a.478.478,0,0,1,.478-.478h1.717a.477.477,0,0,1,.478.478v3.43a.478.478,0,0,1-.478.478m-1.239-.956h.762v-2.474h-.762Z" transform="translate(-313.46 -208.789)" fill="#6a900a"/>
    <path id="Path_2552" data-name="Path 2552" d="M591.839,391.838h-3.43a.478.478,0,0,1-.478-.478V387.93a.478.478,0,0,1,.478-.478h3.43a.478.478,0,0,1,.478.478v3.431a.478.478,0,0,1-.478.478m-2.952-.956h2.475v-2.475h-2.475Z" transform="translate(-307.017 -202.327)" fill="#6a900a"/>
    <path id="Path_2553" data-name="Path 2553" d="M591.839,404.211h-3.43a.478.478,0,0,1-.478-.478V400.3a.477.477,0,0,1,.478-.478h3.43a.477.477,0,0,1,.478.478v3.43a.478.478,0,0,1-.478.478m-2.952-.956h2.475v-2.474h-2.475Z" transform="translate(-307.017 -208.789)" fill="#6a900a"/>
    <path id="Path_2554" data-name="Path 2554" d="M602.463,417.537h-1.717a.478.478,0,0,1-.478-.478v-3.43a.478.478,0,0,1,.478-.478h1.717a.477.477,0,0,1,.478.478v3.43a.477.477,0,0,1-.478.478m-1.239-.956h.762v-2.475h-.762Z" transform="translate(-313.46 -215.748)" fill="#6a900a"/>
    <path id="Path_2555" data-name="Path 2555" d="M591.839,417.537h-3.43a.477.477,0,0,1-.478-.478v-3.43a.477.477,0,0,1,.478-.478h3.43a.477.477,0,0,1,.478.478v3.43a.477.477,0,0,1-.478.478m-2.952-.956h2.475v-2.475h-2.475Z" transform="translate(-307.017 -215.748)" fill="#6a900a"/>
    <path id="Path_2556" data-name="Path 2556" d="M602.463,430.871h-1.717a.478.478,0,0,1-.478-.478v-3.43a.478.478,0,0,1,.478-.478h1.717a.477.477,0,0,1,.478.478v3.43a.477.477,0,0,1-.478.478m-1.239-.956h.762v-2.475h-.762Z" transform="translate(-313.46 -222.711)" fill="#6a900a"/>
    <path id="Path_2557" data-name="Path 2557" d="M591.839,430.871h-3.43a.477.477,0,0,1-.478-.478v-3.43a.477.477,0,0,1,.478-.478h3.43a.477.477,0,0,1,.478.478v3.43a.477.477,0,0,1-.478.478m-2.952-.956h2.475v-2.475h-2.475Z" transform="translate(-307.017 -222.711)" fill="#6a900a"/>
    <path id="Path_2558" data-name="Path 2558" d="M591.435,446.569a.478.478,0,0,1-.478-.478v-5.4a.478.478,0,0,1,.478-.478H597.6a.478.478,0,0,1,0,.956h-5.686v4.921a.478.478,0,0,1-.478.478" transform="translate(-308.598 -229.88)" fill="#6a900a"/>
    <path id="Path_2559" data-name="Path 2559" d="M625.53,440.653h-14.3a.478.478,0,1,1,0-.956h14.3a.478.478,0,0,1,0,.956" transform="translate(-318.932 -229.61)" fill="#6a900a"/>
    <path id="Path_2560" data-name="Path 2560" d="M616.1,446.3a.478.478,0,0,1-.478-.478v-5.646a.478.478,0,1,1,.956,0v5.646a.478.478,0,0,1-.478.478" transform="translate(-321.48 -229.61)" fill="#6a900a"/>
    <path id="Path_2561" data-name="Path 2561" d="M636.365,446.263a.478.478,0,0,1-.478-.478v-5.609a.478.478,0,1,1,.956,0v5.609a.478.478,0,0,1-.478.478" transform="translate(-332.06 -229.61)" fill="#6a900a"/>
    <path id="Path_2562" data-name="Path 2562" d="M487.509,372.306H454.017a.478.478,0,0,1-.251-.884l15.55-9.6a.478.478,0,0,1,.476-.015l17.837,9.546h6.776a.478.478,0,1,1,0,.956h-6.9Zm-31.809-.956h29.9l-16.02-8.574Z" transform="translate(-236.838 -188.905)" fill="#6a900a"/>
    <path id="Path_2563" data-name="Path 2563" d="M486.566,372.2a.478.478,0,0,1-.478-.478v-9.5a.478.478,0,1,1,.956,0v9.5a.478.478,0,0,1-.478.478" transform="translate(-253.835 -188.905)" fill="#6a900a"/>
    <path id="Path_2564" data-name="Path 2564" d="M485.13,389.161h-13.6a.478.478,0,0,1-.478-.478v-6.359a.478.478,0,1,1,.956,0v5.881h12.641v-5.881a.478.478,0,1,1,.956,0v6.359a.478.478,0,0,1-.478.478" transform="translate(-245.985 -199.4)" fill="#6a900a"/>
    <path id="Path_2565" data-name="Path 2565" d="M494.855,422.394a.478.478,0,0,1-.478-.478V395.632a.478.478,0,0,1,.956,0v26.284a.478.478,0,0,1-.478.478" transform="translate(-258.164 -206.349)" fill="#6a900a"/>
    <path id="Path_2566" data-name="Path 2566" d="M485.283,422.394a.476.476,0,0,1-.338-.14L477,414.3v7.615a.478.478,0,1,1-.956,0V395.633a.478.478,0,0,1,.812-.342l8.758,8.559a.478.478,0,0,1,.008.676l-8.427,8.618,8.424,8.436a.478.478,0,0,1-.338.815M477,396.768v15.208l7.6-7.776Z" transform="translate(-248.592 -206.35)" fill="#6a900a"/>
    <path id="Path_2567" data-name="Path 2567" d="M531.334,391.672a.478.478,0,0,1-.478-.478v-8.87a.478.478,0,1,1,.956,0v8.87a.478.478,0,0,1-.478.478" transform="translate(-277.213 -199.4)" fill="#6a900a"/>
    <path id="Path_2568" data-name="Path 2568" d="M530.965,409.228H523.03a.478.478,0,0,1-.478-.478v-7.936a.478.478,0,0,1,.478-.478h7.935a.478.478,0,0,1,.478.478v7.936a.478.478,0,0,1-.478.478m-7.458-.956h6.98v-6.98h-6.98Z" transform="translate(-272.877 -209.056)" fill="#6a900a"/>
    <path id="Path_2569" data-name="Path 2569" d="M172.765,191.964a10.6,10.6,0,0,1-7.055-2.687.478.478,0,1,1,.635-.714,9.643,9.643,0,0,0,6.419,2.445c.062,0,.133,0,.2,0a9.665,9.665,0,1,0-9.284-12.967.478.478,0,0,1-.9-.327A10.619,10.619,0,1,1,173,191.959c-.067,0-.153,0-.24,0" transform="translate(-84.99 -89.15)" fill="#001117"/>
    <path id="Path_2570" data-name="Path 2570" d="M147.006,199.2a8.234,8.234,0,1,1,8.233-8.234,8.243,8.243,0,0,1-8.233,8.234m0-15.512a7.278,7.278,0,1,0,7.278,7.278,7.286,7.286,0,0,0-7.278-7.278" transform="translate(-72.467 -95.424)" fill="#001117"/>
    <path id="Path_2571" data-name="Path 2571" d="M183.662,205.724a.477.477,0,0,1-.478-.478V181.9a.478.478,0,0,1,.956,0v23.348a.477.477,0,0,1-.478.478" transform="translate(-95.659 -94.738)" fill="#001117"/>
    <path id="Path_2572" data-name="Path 2572" d="M155.483,210.471a.477.477,0,0,1-.478-.478v-19a.478.478,0,1,1,.956,0v19a.478.478,0,0,1-.478.478" transform="translate(-80.944 -99.484)" fill="#001117"/>
    <path id="Path_2573" data-name="Path 2573" d="M183.663,188.464a.478.478,0,1,1,0-.956A2.163,2.163,0,0,0,185.729,186a.478.478,0,0,1,.91.291,3.115,3.115,0,0,1-2.976,2.173" transform="translate(-95.659 -96.956)" fill="#001117"/>
    <path id="Path_2574" data-name="Path 2574" d="M183.663,200.015a.478.478,0,1,1,0-.956,4.8,4.8,0,0,0,4.587-3.348.478.478,0,0,1,.91.291,5.754,5.754,0,0,1-5.5,4.013" transform="translate(-95.659 -102.027)" fill="#001117"/>
    <path id="Path_2575" data-name="Path 2575" d="M178.763,193.241a5.168,5.168,0,0,1-4.937-3.6.478.478,0,1,1,.91-.291,4.216,4.216,0,0,0,4.027,2.939.478.478,0,1,1,0,.956" transform="translate(-90.76 -98.703)" fill="#001117"/>
    <path id="Path_2576" data-name="Path 2576" d="M153.033,198.922l-.052,0a3.136,3.136,0,0,1-2.644-2.159.478.478,0,0,1,.91-.292,2.179,2.179,0,0,0,1.837,1.5.478.478,0,0,1-.051.953" transform="translate(-78.494 -102.423)" fill="#001117"/>
    <path id="Path_2577" data-name="Path 2577" d="M155.482,203.531a.478.478,0,0,1-.023-.955,4.827,4.827,0,0,0,4.332-3.334.478.478,0,0,1,.91.293,5.788,5.788,0,0,1-5.2,4h-.024" transform="translate(-80.943 -103.871)" fill="#001117"/>
    <path id="Path_2578" data-name="Path 2578" d="M108.012,213.532a.478.478,0,0,1-.478-.478V199.989a.477.477,0,0,1,.14-.338l1.4-1.4v-1.627H96.483a.478.478,0,1,1,0-.956h13.066a.478.478,0,0,1,.478.478v2.3a.479.479,0,0,1-.14.338l-1.4,1.4v12.868a.478.478,0,0,1-.478.478" transform="translate(-50.134 -102.179)" fill="#6a900a"/>
    <path id="Path_2579" data-name="Path 2579" d="M96.11,182.347a.478.478,0,0,1-.478-.478v-9.226a4.242,4.242,0,0,0-1.979-3.362h-2.78a4.259,4.259,0,0,0-1.98,3.362v4.609a.478.478,0,1,1-.956,0v-4.609a5.248,5.248,0,0,1,2.519-4.236.476.476,0,0,1,.268-.082H93.8a.478.478,0,0,1,.267.081,5.231,5.231,0,0,1,2.519,4.237v9.226a.478.478,0,0,1-.478.478" transform="translate(-45.921 -87.899)" fill="#6a900a"/>
    <path id="Path_2580" data-name="Path 2580" d="M104.17,174.924a.478.478,0,0,1-.478-.478V159.071a1.062,1.062,0,0,0-1.061-1.061H98.022a1.062,1.062,0,0,0-1.061,1.061v1.539a.478.478,0,0,1-.956,0v-1.539a2.019,2.019,0,0,1,2.017-2.017h4.609a2.02,2.02,0,0,1,2.016,2.017v15.375a.478.478,0,0,1-.478.478" transform="translate(-50.134 -82.014)" fill="#6a900a"/>
    <path id="Path_2581" data-name="Path 2581" d="M59.475,178.421a.478.478,0,0,1-.478-.478v-9.225a2.019,2.019,0,0,1,2.017-2.017h4.609a2.019,2.019,0,0,1,2.017,2.017v1.539a.478.478,0,1,1-.956,0v-1.539a1.063,1.063,0,0,0-1.062-1.061H61.014a1.062,1.062,0,0,0-1.061,1.061v9.225a.478.478,0,0,1-.478.478" transform="translate(-30.808 -87.051)" fill="#6a900a"/>
    <path id="Path_2582" data-name="Path 2582" d="M110.048,175.709H107.74a.478.478,0,0,1,0-.956h2.308a.478.478,0,1,1,0,.956" transform="translate(-56.012 -91.256)" fill="#6a900a"/>
    <path id="Path_2583" data-name="Path 2583" d="M96.34,164.451H93.263a.478.478,0,0,1,0-.956H96.34a.478.478,0,1,1,0,.956" transform="translate(-48.452 -85.377)" fill="#6a900a"/>
    <path id="Path_2584" data-name="Path 2584" d="M56.745,207.741H49.827a.478.478,0,0,1-.478-.478v-3.078a.478.478,0,0,1,.478-.478H62.893a.478.478,0,0,1,0,.956H50.3v2.122h6.44a.478.478,0,1,1,0,.956" transform="translate(-25.77 -106.376)" fill="#6a900a"/>
    <path id="Path_2585" data-name="Path 2585" d="M95.42,207.741H90.042a.478.478,0,1,1,0-.956h4.9v-2.122H91.579a.478.478,0,1,1,0-.956H95.42a.478.478,0,0,1,.478.478v3.078a.478.478,0,0,1-.478.478" transform="translate(-46.77 -106.376)" fill="#6a900a"/>
    <path id="Path_2586" data-name="Path 2586" d="M75.214,175.709H67.527a.478.478,0,0,1,0-.956h7.687a.478.478,0,0,1,0,.956" transform="translate(-35.013 -91.256)" fill="#6a900a"/>
    <path id="Path_2587" data-name="Path 2587" d="M63.1,221.088a12.161,12.161,0,0,1-1.624-.109,12.039,12.039,0,0,1-10.3-10.3.478.478,0,1,1,.947-.128,11.054,11.054,0,0,0,21.91-.007.478.478,0,1,1,.947.128A12.014,12.014,0,0,1,63.1,221.088" transform="translate(-26.719 -109.732)" fill="#6a900a"/>
    <path id="Path_2588" data-name="Path 2588" d="M74.5,189.551a.477.477,0,0,1-.473-.413A10.875,10.875,0,0,0,66.76,180.3a.477.477,0,0,1-.322-.452v-1.83H65.375a.478.478,0,0,1-.478-.478v-1.83H61.244v1.83a.478.478,0,0,1-.478.478H59.7v1.83a.478.478,0,0,1-.322.452,10.892,10.892,0,0,0-7.265,8.833.478.478,0,1,1-.946-.132,11.837,11.837,0,0,1,7.577-9.488v-1.973a.478.478,0,0,1,.478-.478h1.061v-1.83a.478.478,0,0,1,.478-.478h4.609a.478.478,0,0,1,.478.478v1.83h1.063a.478.478,0,0,1,.478.478v1.973a11.82,11.82,0,0,1,7.576,9.5.477.477,0,0,1-.408.538.523.523,0,0,1-.066,0" transform="translate(-26.719 -91.256)" fill="#6a900a"/>
    <path id="Path_2589" data-name="Path 2589" d="M110.048,183.745H107.74a.478.478,0,1,1,0-.956h2.308a.478.478,0,1,1,0,.956" transform="translate(-56.012 -95.452)" fill="#6a900a"/>
    <path id="Path_2590" data-name="Path 2590" d="M119,189.13a.478.478,0,0,1-.478-.478v-5.386a.478.478,0,1,1,.956,0v5.386a.478.478,0,0,1-.478.478" transform="translate(-61.891 -95.452)" fill="#6a900a"/>
    <path id="Path_2591" data-name="Path 2591" d="M113.047,204.664h-6.918a.478.478,0,0,1,0-.956h6.918a.478.478,0,0,1,0,.956" transform="translate(-55.171 -106.376)" fill="#6a900a"/>
    <path id="Path_2592" data-name="Path 2592" d="M78.712,180.539H77.173a.478.478,0,1,1,0-.956h1.539a.478.478,0,1,1,0,.956" transform="translate(-40.05 -93.778)" fill="#6a900a"/>
    <path id="Path_2593" data-name="Path 2593" d="M72.272,180.539H70.733a.478.478,0,0,1,0-.956h1.539a.478.478,0,0,1,0,.956" transform="translate(-36.687 -93.778)" fill="#6a900a"/>
    <path id="Path_2594" data-name="Path 2594" d="M106.13,223.061a.478.478,0,0,1-.478-.478v-2.308a.478.478,0,1,1,.956,0v2.308a.478.478,0,0,1-.478.478" transform="translate(-55.171 -114.778)" fill="#6a900a"/>
    <path id="Path_2595" data-name="Path 2595" d="M112.571,223.061a.478.478,0,0,1-.478-.478v-2.308a.478.478,0,1,1,.956,0v2.308a.478.478,0,0,1-.478.478" transform="translate(-58.535 -114.778)" fill="#6a900a"/>
    <path id="Path_2596" data-name="Path 2596" d="M5.791,110.862H136.1a20.94,20.94,0,0,1,21.087,20.791v64.037a20.941,20.941,0,0,0,21.087,20.791H380.791" transform="translate(-5.791 -0.001)" fill="none" stroke="#6a900a" stroke-miterlimit="10" stroke-width="2"/>
    <path id="Path_2597" data-name="Path 2597" d="M250.87,225.416h-7.235a.475.475,0,0,1,0-.951h7.235a.475.475,0,1,1,0,.951" transform="translate(-126.978 -117.216)" fill="#6a900a"/>
    <path id="Path_2598" data-name="Path 2598" d="M219.662,209.216a1.285,1.285,0,0,1-1.282-1.255V196.406a2.984,2.984,0,0,1,2.966-2.968h20.735a4.7,4.7,0,0,1,4.628,4.624v9.848a1.267,1.267,0,0,1-.351.9,1.28,1.28,0,0,1-.9.4h-2.547a.475.475,0,0,1,0-.951H245.4a.351.351,0,0,0,.264-.105.327.327,0,0,0,.091-.237v-9.857a3.744,3.744,0,0,0-3.683-3.678H221.348a2.029,2.029,0,0,0-2.017,2.018v11.5a.342.342,0,0,0,.34.355h1.949a.475.475,0,0,1,0,.951h-1.958Z" transform="translate(-114.038 -101.013)" fill="#6a900a"/>
    <path id="Path_2599" data-name="Path 2599" d="M263.455,206.122a3.68,3.68,0,0,1-3.465-2.452l-1.658-4.38a.475.475,0,0,1,.89-.336l1.661,4.389a2.723,2.723,0,0,0,2.63,1.828h3.449a.475.475,0,1,1,0,.951h-3.507" transform="translate(-134.885 -103.734)" fill="#6a900a"/>
    <path id="Path_2600" data-name="Path 2600" d="M253.111,209.34a.475.475,0,0,1-.475-.475V194.157a.475.475,0,1,1,.951,0v14.708a.475.475,0,0,1-.475.475" transform="translate(-131.926 -101.141)" fill="#6a900a"/>
    <path id="Path_2601" data-name="Path 2601" d="M261.013,226.13a2.535,2.535,0,1,1,2.535-2.535,2.537,2.537,0,0,1-2.535,2.535m0-4.119A1.584,1.584,0,1,0,262.6,223.6a1.586,1.586,0,0,0-1.584-1.584" transform="translate(-134.978 -115.438)" fill="#6a900a"/>
    <path id="Path_2602" data-name="Path 2602" d="M235.226,226.13a2.535,2.535,0,1,1,2.535-2.535,2.537,2.537,0,0,1-2.535,2.535m0-4.119a1.584,1.584,0,1,0,1.584,1.584,1.585,1.585,0,0,0-1.584-1.584" transform="translate(-121.512 -115.438)" fill="#6a900a"/>
    <path id="Path_2603" data-name="Path 2603" d="M226.606,226.13a2.535,2.535,0,1,1,2.535-2.535,2.537,2.537,0,0,1-2.535,2.535m0-4.119a1.584,1.584,0,1,0,1.584,1.584,1.586,1.586,0,0,0-1.584-1.584" transform="translate(-117.01 -115.438)" fill="#6a900a"/>
    <path id="Path_2604" data-name="Path 2604" d="M235.111,203.733a3.856,3.856,0,0,0,.076-1.3l.834-.284-.565-1.661-.848.288a3.866,3.866,0,0,0-1.571-1.4l.208-.888-1.709-.4-.21.9a3.866,3.866,0,0,0-2.062.6l-.657-.642-1.227,1.256.652.636a3.837,3.837,0,0,0-.554,2.372l-.844.287.565,1.662.829-.281a3.868,3.868,0,0,0,1.578,1.448l-.2.838,1.709.4.194-.829a3.864,3.864,0,0,0,2.125-.62l.61.6,1.226-1.256-.614-.6a3.871,3.871,0,0,0,.45-1.108m-1.5-.382a2.35,2.35,0,1,1-1.751-2.824,2.35,2.35,0,0,1,1.751,2.824" transform="translate(-118.349 -103.437)" fill="#6a900a"/>
    <path id="Path_2605" data-name="Path 2605" d="M731.909,431.063l-6.472-5.035-.007-.006-3.031-2.358" transform="translate(-377.237 -221.238)" fill="none" stroke="#6a900a" stroke-linecap="round" stroke-linejoin="round" stroke-width="1.6"/>
    <path id="Path_2606" data-name="Path 2606" d="M715.2,431.054l6.47-5.04.007-.005h0l3.03-2.36" transform="translate(-373.478 -221.228)" fill="none" stroke="#6a900a" stroke-linecap="round" stroke-linejoin="round" stroke-width="1.6"/>
    <path id="Path_2607" data-name="Path 2607" d="M712.308,371.19l-12.169-3.706h27.422L715.343,371.2" transform="translate(-365.613 -191.9)" fill="none" stroke="#6a900a" stroke-linecap="round" stroke-linejoin="round" stroke-width="1.6"/>
    <path id="Path_2608" data-name="Path 2608" d="M727.852,406.9s-9.142-12.725-9.142-23.549V365.663l-1.444-1-1.442,1v17.688c0,10.825-9.142,23.549-9.142,23.549" transform="translate(-369.03 -190.426)" fill="none" stroke="#6a900a" stroke-linecap="round" stroke-linejoin="round" stroke-width="1.6"/>
    <line id="Line_806" data-name="Line 806" y1="4.824" x2="4.941" transform="translate(345.147 197.225)" fill="none" stroke="#6a900a" stroke-linecap="round" stroke-linejoin="round" stroke-width="1.6"/>
    <path id="Path_2609" data-name="Path 2609" d="M712.308,384.444l-12.169-3.706h27.422l-12.218,3.721" transform="translate(-365.613 -198.821)" fill="none" stroke="#6a900a" stroke-linecap="round" stroke-linejoin="round" stroke-width="1.6"/>
    <line id="Line_807" data-name="Line 807" x1="4.941" y1="4.824" transform="translate(346.413 197.225)" fill="none" stroke="#6a900a" stroke-linecap="round" stroke-linejoin="round" stroke-width="1.6"/>
    <line id="Line_808" data-name="Line 808" y2="2.665" transform="translate(334.871 175.598)" fill="none" stroke="#6a900a" stroke-linecap="round" stroke-linejoin="round" stroke-width="1.6"/>
    <line id="Line_809" data-name="Line 809" y2="2.665" transform="translate(334.871 182.043)" fill="none" stroke="#6a900a" stroke-linecap="round" stroke-linejoin="round" stroke-width="1.6"/>
    <line id="Line_810" data-name="Line 810" y2="2.665" transform="translate(361.583 175.598)" fill="none" stroke="#6a900a" stroke-linecap="round" stroke-linejoin="round" stroke-width="1.6"/>
    <line id="Line_811" data-name="Line 811" y2="2.665" transform="translate(361.583 182.043)" fill="none" stroke="#6a900a" stroke-linecap="round" stroke-linejoin="round" stroke-width="1.6"/>
    <path id="Path_2610" data-name="Path 2610" d="M689.2,438.047l-4.418-3.437,0,0L682.712,433" transform="translate(-356.512 -226.111)" fill="none" stroke="#6a900a" stroke-linecap="round" stroke-linejoin="round" stroke-width="1.6"/>
    <path id="Path_2611" data-name="Path 2611" d="M677.8,438.04l4.416-3.44,0,0h0l2.068-1.611" transform="translate(-353.946 -226.104)" fill="none" stroke="#6a900a" stroke-linecap="round" stroke-linejoin="round" stroke-width="1.6"/>
    <path id="Path_2612" data-name="Path 2612" d="M675.824,397.178l-8.306-2.53h18.717l-8.339,2.54" transform="translate(-348.578 -206.085)" fill="none" stroke="#6a900a" stroke-linecap="round" stroke-linejoin="round" stroke-width="1.6"/>
    <path id="Path_2613" data-name="Path 2613" d="M686.434,421.554s-6.24-8.685-6.24-16.074V393.406l-.985-.684-.984.684V405.48c0,7.389-6.24,16.074-6.24,16.074" transform="translate(-350.91 -205.079)" fill="none" stroke="#6a900a" stroke-linecap="round" stroke-linejoin="round" stroke-width="1.6"/>
    <line id="Line_812" data-name="Line 812" y1="3.293" x2="3.373" transform="translate(326.189 203.335)" fill="none" stroke="#6a900a" stroke-linecap="round" stroke-linejoin="round" stroke-width="1.6"/>
    <path id="Path_2614" data-name="Path 2614" d="M675.824,406.225l-8.306-2.53h18.717l-8.339,2.54" transform="translate(-348.578 -210.81)" fill="none" stroke="#6a900a" stroke-linecap="round" stroke-linejoin="round" stroke-width="1.6"/>
    <line id="Line_813" data-name="Line 813" x1="3.373" y1="3.293" transform="translate(327.054 203.335)" fill="none" stroke="#6a900a" stroke-linecap="round" stroke-linejoin="round" stroke-width="1.6"/>
    <line id="Line_814" data-name="Line 814" y1="1.819" transform="translate(319.175 188.573)" fill="none" stroke="#6a900a" stroke-linecap="round" stroke-linejoin="round" stroke-width="1.6"/>
    <line id="Line_815" data-name="Line 815" y2="1.819" transform="translate(319.175 192.972)" fill="none" stroke="#6a900a" stroke-linecap="round" stroke-linejoin="round" stroke-width="1.6"/>
    <line id="Line_816" data-name="Line 816" y2="1.819" transform="translate(337.408 188.573)" fill="none" stroke="#6a900a" stroke-linecap="round" stroke-linejoin="round" stroke-width="1.6"/>
    <line id="Line_817" data-name="Line 817" y2="1.819" transform="translate(337.408 192.972)" fill="none" stroke="#6a900a" stroke-linecap="round" stroke-linejoin="round" stroke-width="1.6"/>
  </g>
</svg>
