<svg xmlns="http://www.w3.org/2000/svg" width="1926.649" height="324.08" viewBox="0 0 1926.649 324.08">
  <g id="line" transform="translate(0 0.536)">
    <g id="Group_136" data-name="Group 136" transform="translate(-1.767 -343.33)">
      <path id="Path_409" data-name="Path 409" d="M280.783,665.591h85.1a.857.857,0,0,0,0-1.714h-85.1a.857.857,0,0,0,0,1.714Z" fill="#7c7b7b"/>
      <g id="Group_133" data-name="Group 133">
        <path id="Path_410" data-name="Path 410" d="M320.479,650.455c-5.14-10.567-6.568-32.271,6-47.978l.857-.857.857.857c12.566,15.707,10.852,37.411,6,47.978-2,4-4.284,6-6.568,6C324.763,656.452,322.478,654.453,320.479,650.455Zm1.714-.857c1.428,3.141,3.427,5.14,4.855,5.14s3.427-2,4.855-5.14c4.569-9.424,6-30.272-4.855-45.122-10.853,14.85-9.425,35.7-4.856,45.122Z" fill="#7c7b7b"/>
        <path id="Path_411" data-name="Path 411" d="M327.047,665.591a.757.757,0,0,0,.857-.642.773.773,0,0,0,0-.215v-39.7a.857.857,0,0,0-1.714,0v39.7a.757.757,0,0,0,.642.857A.773.773,0,0,0,327.047,665.591Z" fill="#7c7b7b"/>
      </g>
      <g id="Group_134" data-name="Group 134">
        <path id="Path_412" data-name="Path 412" d="M340.469,651.886c-4-8-5.141-24.846,4.569-36.84l.857-.857.857.857c9.424,11.994,8.282,28.558,4.569,36.84-1.428,3.141-3.427,4.855-5.141,4.855C343.9,656.452,342.183,654.739,340.469,651.886Zm1.713-.857c1.142,2.285,2.57,3.713,3.427,3.713,1.142,0,2.285-1.428,3.427-3.713,3.427-7.14,4.569-22.561-3.427-33.7-7.995,10.851-6.849,26.557-3.426,33.7Z" fill="#7c7b7b"/>
        <path id="Path_413" data-name="Path 413" d="M345.895,665.591a.757.757,0,0,0,.857-.642.776.776,0,0,0,0-.215v-31.7a.857.857,0,0,0-1.714,0v31.7C344.753,665.306,345.324,665.591,345.895,665.591Z" fill="#7c7b7b"/>
      </g>
      <g id="Group_135" data-name="Group 135">
        <path id="Path_414" data-name="Path 414" d="M303.058,651.886c-4-8-5.14-24.846,4.569-36.84l.857-.857.857.857c9.424,11.994,8.282,28.558,4.569,36.84-1.428,3.141-3.427,4.855-5.14,4.855C306.485,656.452,304.486,654.739,303.058,651.886Zm1.713-.857c1.142,2.285,2.57,3.713,3.427,3.713,1.142,0,2.285-1.428,3.427-3.713,3.427-7.14,4.569-22.561-3.427-33.7-7.995,10.851-6.849,26.557-3.426,33.7Z" fill="#7c7b7b"/>
        <path id="Path_415" data-name="Path 415" d="M308.2,665.591a.757.757,0,0,0,.857-.642.773.773,0,0,0,0-.215v-31.7a.857.857,0,1,0-1.714,0v31.7A.911.911,0,0,0,308.2,665.591Z" fill="#7c7b7b"/>
      </g>
    </g>
    <g id="Group_138" data-name="Group 138" transform="translate(-1.767 -343.33)">
      <path id="Path_416" data-name="Path 416" d="M1296.019,653.917a18.4,18.4,0,0,0,0-36.81h0a17.782,17.782,0,0,0-12.672,5.129.853.853,0,0,0,1.207,1.207h0a16.193,16.193,0,0,1,11.465-4.526,16.595,16.595,0,1,1-16.293,19.612c0-.6-.6-.9-1.207-.6-.6,0-.905.6-.6,1.207A18.213,18.213,0,0,0,1296.019,653.917Z" fill="#7c7b7b"/>
      <path id="Path_417" data-name="Path 417" d="M1296.02,666.589a.8.8,0,0,0,.905-.679.779.779,0,0,0,0-.226V627.667a.905.905,0,0,0-1.81,0v38.321C1295.115,666.287,1295.415,666.589,1296.02,666.589Z" fill="#7c7b7b"/>
      <path id="Path_418" data-name="Path 418" d="M1296.02,640.641a9.4,9.4,0,0,0,9.353-9.353.905.905,0,0,0-1.81,0v0a7.47,7.47,0,0,1-7.4,7.543h-.147a.9.9,0,0,0,0,1.81Z" fill="#7c7b7b"/>
      <path id="Path_419" data-name="Path 419" d="M1296.02,646.977a.9.9,0,0,0,0-1.81,7.47,7.47,0,0,1-7.543-7.4v-.147a.905.905,0,0,0-1.81,0v0C1286.364,642.753,1290.588,646.977,1296.02,646.977Z" fill="#7c7b7b"/>
      <path id="Path_420" data-name="Path 420" d="M1232.659,666.589h82.671a.9.9,0,0,0,0-1.81h-82.671a.8.8,0,0,0-.9.685.81.81,0,0,0,0,.22A.963.963,0,0,0,1232.659,666.589Z" fill="#7c7b7b"/>
      <g id="Group_137" data-name="Group 137">
        <path id="Path_421" data-name="Path 421" d="M1234.168,623.745a25.344,25.344,0,1,1,25.344,25.344h0a25.3,25.3,0,0,1-25.344-25.256Zm1.81,0a23.534,23.534,0,1,0,23.534-23.534h0C1246.538,600.513,1235.978,611.073,1235.978,623.745Z" fill="#7c7b7b"/>
        <path id="Path_422" data-name="Path 422" d="M1259.512,666.589a.8.8,0,0,0,.905-.679.779.779,0,0,0,0-.226V608.056a.9.9,0,0,0-1.81,0v57.631a.8.8,0,0,0,.679.9A.779.779,0,0,0,1259.512,666.589Z" fill="#7c7b7b"/>
        <path id="Path_423" data-name="Path 423" d="M1259.507,620.427a8.112,8.112,0,0,0,8.146-8.078v-.068a.9.9,0,0,0-1.81,0v0a6.187,6.187,0,0,1-6.034,6.336c-.1,0-.2,0-.3,0a.905.905,0,0,0,0,1.81Z" fill="#7c7b7b"/>
        <path id="Path_424" data-name="Path 424" d="M1259.512,626.763a.905.905,0,0,0,0-1.81h0a6.187,6.187,0,0,1-6.336-6.034c0-.1,0-.2,0-.3a.905.905,0,0,0-1.81,0v0A8.31,8.31,0,0,0,1259.512,626.763Z" fill="#7c7b7b"/>
        <path id="Path_425" data-name="Path 425" d="M1259.507,635.211a15.452,15.452,0,0,0,15.388-15.388.905.905,0,0,0-1.81,0v0A13.521,13.521,0,0,1,1259.62,633.4h-.112a.905.905,0,0,0,0,1.81Z" fill="#7c7b7b"/>
        <path id="Path_426" data-name="Path 426" d="M1259.512,641.245a.9.9,0,0,0,0-1.81,13.521,13.521,0,0,1-13.577-13.465v-.112a.905.905,0,0,0-1.81,0v0a15.075,15.075,0,0,0,14.756,15.387C1259.092,641.249,1259.3,641.249,1259.512,641.245Z" fill="#7c7b7b"/>
      </g>
    </g>
    <g id="Group_139" data-name="Group 139" transform="translate(-1.767 -343.33)">
      <line id="Line_35" data-name="Line 35" x1="41.41" transform="translate(1556.666 391.574)" fill="none" stroke="#6a900a" stroke-miterlimit="10" stroke-width="1"/>
      <path id="Path_427" data-name="Path 427" d="M1532.965,391.576h-4a1.952,1.952,0,0,1-2-1.9c0-.032,0-.065,0-.1v-27.7a6.033,6.033,0,0,1,6-6h75.108a10.119,10.119,0,0,1,10,10v23.7a1.952,1.952,0,0,1-1.9,2c-.032,0-.065,0-.1,0h-6" fill="none" stroke="#6a900a" stroke-miterlimit="10" stroke-width="1"/>
      <path id="Path_428" data-name="Path 428" d="M1544.672,391.576a6.033,6.033,0,0,1-6,6,5.855,5.855,0,0,1-6-5.708c0-.1,0-.2,0-.292a6,6,0,0,1,11.994-.379c0,.126,0,.253,0,.379Z" fill="none" stroke="#6a900a" stroke-miterlimit="10" stroke-width="1"/>
      <path id="Path_429" data-name="Path 429" d="M1556.665,391.576a6,6,0,1,1-6-6C1553.81,385.862,1556.665,388.432,1556.665,391.576Z" fill="none" stroke="#6a900a" stroke-miterlimit="10" stroke-width="1"/>
      <path id="Path_430" data-name="Path 430" d="M1610.069,391.576a6,6,0,1,1-6-6C1607.214,385.862,1610.069,388.432,1610.069,391.576Z" fill="none" stroke="#6a900a" stroke-miterlimit="10" stroke-width="1"/>
      <path id="Path_431" data-name="Path 431" d="M1598.075,361.873l4,10.567a7.73,7.73,0,0,0,7.425,5.14h8.282" fill="none" stroke="#6a900a" stroke-miterlimit="10" stroke-width="1"/>
      <line id="Line_36" data-name="Line 36" x1="13.708" transform="translate(1584.367 377.866)" fill="none" stroke="#6a900a" stroke-miterlimit="10" stroke-width="1"/>
      <line id="Line_37" data-name="Line 37" x1="39.41" transform="translate(1526.965 377.866)" fill="none" stroke="#6a900a" stroke-miterlimit="10" stroke-width="1"/>
      <line id="Line_38" data-name="Line 38" y2="35.412" transform="translate(1584.367 356.161)" fill="none" stroke="#6a900a" stroke-miterlimit="10" stroke-width="1"/>
      <line id="Line_39" data-name="Line 39" y2="35.412" transform="translate(1566.376 356.161)" fill="none" stroke="#6a900a" stroke-miterlimit="10" stroke-width="1"/>
      <path id="Path_432" data-name="Path 432" d="M1558.665,356.165v-8h27.7l7.711,8" fill="none" stroke="#6a900a" stroke-miterlimit="10" stroke-width="1"/>
    </g>
    <g id="Group_140" data-name="Group 140" transform="translate(-1.767 -343.33)">
      <path id="Path_433" data-name="Path 433" d="M811.652,480.247H835.07" fill="none" stroke="#6a900a" stroke-miterlimit="10" stroke-width="1"/>
      <path id="Path_434" data-name="Path 434" d="M847.35,480.247h8.278v-8.282c0-3.141-9.424-7.14-16.278-8.282-5.426-5.14-10-8.282-15.136-8.282H813.366c-5.712,0-9.139,4-14.85,8.282h-4.288c-1.428,3.427-2,9.424-1.142,12.28.571,2.856,2.57,4.284,5.426,4.284h1.142" fill="none" stroke="#6a900a" stroke-miterlimit="10" stroke-width="1"/>
      <path id="Path_435" data-name="Path 435" d="M835.07,465.4l-2.856,1.142H810.226l-4-4.284" fill="none" stroke="#6a900a" stroke-miterlimit="10" stroke-width="1"/>
      <path id="Path_436" data-name="Path 436" d="M847.351,479.39a6.283,6.283,0,1,1-6.283-6.283h0A6.526,6.526,0,0,1,847.351,479.39Z" fill="none" stroke="#6a900a" stroke-miterlimit="10" stroke-width="1"/>
      <path id="Path_437" data-name="Path 437" d="M811.653,479.39a6.283,6.283,0,1,1-6.283-6.283h0A6.536,6.536,0,0,1,811.653,479.39Z" fill="none" stroke="#6a900a" stroke-miterlimit="10" stroke-width="1"/>
    </g>
    <g id="Group_227" data-name="Group 227" transform="translate(-1.767 -343.33)">
      <rect id="Rectangle_115" data-name="Rectangle 115" width="41.255" height="56.874" transform="translate(959.118 429.733)" fill="none" stroke="#6a900a" stroke-linejoin="round" stroke-width="1.2"/>
      <rect id="Rectangle_116" data-name="Rectangle 116" width="28.627" height="4.922" transform="translate(965.709 435.071)" fill="none" stroke="#6a900a" stroke-linejoin="round" stroke-width="1.2"/>
      <rect id="Rectangle_117" data-name="Rectangle 117" width="28.627" height="4.922" transform="translate(965.709 444.826)" fill="none" stroke="#6a900a" stroke-linejoin="round" stroke-width="1.2"/>
      <rect id="Rectangle_118" data-name="Rectangle 118" width="28.627" height="4.922" transform="translate(965.709 454.581)" fill="none" stroke="#6a900a" stroke-linejoin="round" stroke-width="1.2"/>
      <rect id="Rectangle_119" data-name="Rectangle 119" width="28.627" height="4.922" transform="translate(965.709 464.335)" fill="none" stroke="#6a900a" stroke-linejoin="round" stroke-width="1.2"/>
      <rect id="Rectangle_120" data-name="Rectangle 120" width="35.647" height="7.449" transform="translate(935.129 410.84)" fill="none" stroke="#6a900a" stroke-linejoin="round" stroke-width="1.2"/>
      <path id="Path_1217" data-name="Path 1217" d="M959.118,486.614h-21V418.289" fill="none" stroke="#6a900a" stroke-linejoin="round" stroke-width="1.2"/>
      <line id="Line_521" data-name="Line 521" y2="11.444" transform="translate(967.91 418.289)" fill="none" stroke="#6a900a" stroke-linejoin="round" stroke-width="1.2"/>
      <rect id="Rectangle_121" data-name="Rectangle 121" width="7.179" height="7.179" transform="translate(955.532 422.554)" fill="none" stroke="#6a900a" stroke-linejoin="round" stroke-width="1.2"/>
      <rect id="Rectangle_122" data-name="Rectangle 122" width="3.593" height="7.179" transform="translate(955.532 434.926)" fill="none" stroke="#6a900a" stroke-linejoin="round" stroke-width="1.2"/>
      <rect id="Rectangle_123" data-name="Rectangle 123" width="7.179" height="7.179" transform="translate(943.194 422.554)" fill="none" stroke="#6a900a" stroke-linejoin="round" stroke-width="1.2"/>
      <rect id="Rectangle_124" data-name="Rectangle 124" width="7.179" height="7.179" transform="translate(943.194 434.926)" fill="none" stroke="#6a900a" stroke-linejoin="round" stroke-width="1.2"/>
      <rect id="Rectangle_125" data-name="Rectangle 125" width="3.593" height="7.179" transform="translate(955.532 448.253)" fill="none" stroke="#6a900a" stroke-linejoin="round" stroke-width="1.2"/>
      <rect id="Rectangle_126" data-name="Rectangle 126" width="7.179" height="7.179" transform="translate(943.194 448.253)" fill="none" stroke="#6a900a" stroke-linejoin="round" stroke-width="1.2"/>
      <rect id="Rectangle_127" data-name="Rectangle 127" width="3.593" height="7.179" transform="translate(955.532 461.587)" fill="none" stroke="#6a900a" stroke-linejoin="round" stroke-width="1.2"/>
      <rect id="Rectangle_128" data-name="Rectangle 128" width="7.179" height="7.179" transform="translate(943.194 461.587)" fill="none" stroke="#6a900a" stroke-linejoin="round" stroke-width="1.2"/>
      <path id="Path_1218" data-name="Path 1218" d="M946.22,486.615v-11.3h12.9" fill="none" stroke="#6a900a" stroke-linejoin="round" stroke-width="1.2"/>
      <line id="Line_522" data-name="Line 522" x2="28.627" transform="translate(965.709 475.316)" fill="none" stroke="#6a900a" stroke-linejoin="round" stroke-width="1.2"/>
      <line id="Line_523" data-name="Line 523" y2="11.299" transform="translate(970.375 475.316)" fill="none" stroke="#6a900a" stroke-linejoin="round" stroke-width="1.2"/>
      <line id="Line_524" data-name="Line 524" y2="11.299" transform="translate(989.746 475.246)" fill="none" stroke="#6a900a" stroke-linejoin="round" stroke-width="1.2"/>
    </g>
    <g id="Group_228" data-name="Group 228" transform="translate(-1.767 -343.33)">
      <path id="Path_1219" data-name="Path 1219" d="M1036.934,427.913l31.9-17.073,27.647,17.073h-71.807" fill="none" stroke="#6a900a" stroke-linejoin="round" stroke-width="1.2"/>
      <line id="Line_525" data-name="Line 525" y2="16.886" transform="translate(1068.83 410.84)" fill="none" stroke="#6a900a" stroke-linejoin="round" stroke-width="1.2"/>
      <path id="Path_1220" data-name="Path 1220" d="M1057.427,427.913v11.306H1081.6V427.913" fill="none" stroke="#6a900a" stroke-linejoin="round" stroke-width="1.2"/>
      <line id="Line_526" data-name="Line 526" y1="46.731" transform="translate(1061.789 439.218)" fill="none" stroke="#6a900a" stroke-linejoin="round" stroke-width="1.2"/>
      <line id="Line_527" data-name="Line 527" x2="29.34" transform="translate(1054.866 485.95)" fill="none" stroke="#6a900a" stroke-linejoin="round" stroke-width="1.2"/>
      <path id="Path_1221" data-name="Path 1221" d="M1061.789,485.949l15.57-15.591-15.57-15.923,15.57-15.217v46.731" fill="none" stroke="#6a900a" stroke-linejoin="round" stroke-width="1.2"/>
      <line id="Line_528" data-name="Line 528" y2="15.771" transform="translate(1030.801 427.913)" fill="none" stroke="#6a900a" stroke-linejoin="round" stroke-width="1.2"/>
      <rect id="Rectangle_129" data-name="Rectangle 129" width="14.109" height="14.109" transform="translate(1023.746 443.621)" fill="none" stroke="#6a900a" stroke-linejoin="round" stroke-width="1.2"/>
    </g>
    <g id="Group_229" data-name="Group 229" transform="translate(-1.767 -343.33)">
      <g id="Group_229-2" data-name="Group 229-2">
        <g id="Group_1069" data-name="Group 1069">
          <path id="Path_1222" data-name="Path 1222" d="M597.466,521.032l-3.074,35.354H569.063V502.112Z" fill="none" stroke="#6a900a" stroke-miterlimit="22.926" stroke-width="1"/>
          <path id="Path_1223" data-name="Path 1223" d="M594.392,556.39h25.329l-7.239-83.226H601.623l-4.157,47.871Z" fill="none" stroke="#6a900a" stroke-miterlimit="22.926" stroke-width="1"/>
        </g>
        <path id="Path_1224" data-name="Path 1224" d="M569.063,556.389H536.495V502.112l32.568,21.709" fill="none" stroke="#6a900a" stroke-miterlimit="22.926" stroke-width="1"/>
        <line id="Line_529" data-name="Line 529" x2="12.744" transform="translate(600.684 484.022)" fill="none" stroke="#6a900a" stroke-miterlimit="22.926" stroke-width="1"/>
        <circle id="Ellipse_6" data-name="Ellipse 6" cx="5.429" cy="5.429" r="5.429" transform="translate(547.353 523.822)" fill="none" stroke="#6a900a" stroke-miterlimit="22.926" stroke-width="1"/>
        <circle id="Ellipse_7" data-name="Ellipse 7" cx="5.429" cy="5.429" r="5.429" transform="translate(576.294 523.822)" fill="none" stroke="#6a900a" stroke-miterlimit="22.926" stroke-width="1"/>
      </g>
      <rect id="Rectangle_130" data-name="Rectangle 130" width="39.103" height="39.103" transform="translate(600.685 518.271)" fill="#fff"/>
      <path id="Path_1225" data-name="Path 1225" d="M651.592,510.449l-.931.931-1.772-.916-1.7,1.136a.855.855,0,0,1-1.136,0l-5.338-6.194a.831.831,0,0,1,0-1.136l3.771-3.771a.831.831,0,0,1,1.136,0l6.194,5.338a.855.855,0,0,1,0,1.136l-1.136,1.7.916,1.772Zm-.469,6.035a3.935,3.935,0,1,0,0-5.566,3.935,3.935,0,0,0,0,5.566Zm6.034-.463-.931.931.916,1.772-1.136,1.7a.855.855,0,0,0,0,1.136L662.2,526.9a.831.831,0,0,0,1.136,0l3.771-3.771a.831.831,0,0,0,0-1.136l-5.338-6.194a.855.855,0,0,0-1.136,0l-1.7,1.136Zm-7.36,9.549-7.141-7.141m.682,13.592L636.2,524.88m8.595,2.141-3.582-3.582m-9.616,13.882-11.5-11.5m7.845,7.845h7.315v7.315m8.087,8.087-2.779,2.62c-5.588,1.537-12.532-.447-17.711-5.626s-7.163-12.115-5.626-17.711l2.62-2.771,23.5,23.489Zm-33.661,7.374h28.88m-11.086,0v-6.8m-4.9-3.529L614.2,556.449" fill="none" stroke="#6a900a" stroke-miterlimit="22.926" stroke-width="1"/>
      <path id="Path_1226" data-name="Path 1226" d="M494.129,556.367h37.353m-5.619,0L512.8,520.49m0,35.877V520.141m-13.054,36.226L512.81,520.49m-13.062,35.877,19.589-19.65m6.527,19.65-19.589-19.658M512.8,513.8a2.234,2.234,0,1,1-2.234,2.234A2.234,2.234,0,0,1,512.8,513.8Zm-7.315,15.008a14.713,14.713,0,1,1,14.629,0m-1.567-3.748a10.692,10.692,0,1,0-11.479,0m1.643-3.93a6.535,6.535,0,1,1,8.193,0" fill="none" stroke="#6a900a" stroke-miterlimit="22.926" stroke-width="1"/>
    </g>
    <g id="Group_231" data-name="Group 231" transform="translate(-1.767 -343.33)">
      <g id="Group_230" data-name="Group 230">
        <path id="Path_1228" data-name="Path 1228" d="M159.584,594.6a2.419,2.419,0,1,0-.008-.019Z" fill="#6a900a"/>
        <path id="Path_1229" data-name="Path 1229" d="M169.844,569.092c-1.012,2.1-8.2,19.1-8.2,19.1s-.78,2.981-.1,3.027c.678.028,2.117-2.247,2.117-2.247,6.7-17.68,6.667-17.7,7.428-19.537C171.924,567.5,170.856,566.993,169.844,569.092Z" fill="#6a900a"/>
        <path id="Path_1230" data-name="Path 1230" d="M176.317,615.231c-1.133-2.034-10.864-17.726-10.864-17.726s-2-2.359-2.414-1.829.613,3.027.613,3.027c10.566,15.689,10.6,15.665,11.653,17.346C176.419,617.85,177.449,617.265,176.317,615.231Z" fill="#6a900a"/>
        <path id="Path_1231" data-name="Path 1231" d="M136.634,601.823c2.275-.511,20.066-5.432,20.066-5.432s2.823-1.244,2.433-1.792-3.074-.269-3.074-.269c-18.023,5.72-18.014,5.757-19.927,6.3C134.1,601.182,134.364,602.333,136.634,601.823Z" fill="#6a900a"/>
      </g>
      <rect id="Rectangle_131" data-name="Rectangle 131" width="32.676" height="1.792" transform="matrix(0.006, -1, 1, 0.006, 160.594, 630.229)" fill="#6a900a"/>
    </g>
    <g id="Group_236" data-name="Group 236" transform="translate(-1.767 -343.33)">
      <g id="Group_232" data-name="Group 232">
        <line id="Line_530" data-name="Line 530" x1="70.997" transform="translate(171.19 666.125)" fill="none" stroke="#6a900a" stroke-miterlimit="10" stroke-width="1"/>
        <line id="Line_531" data-name="Line 531" x1="8.877" transform="translate(185.982 638.027)" fill="none" stroke="#6a900a" stroke-miterlimit="10" stroke-width="1"/>
        <line id="Line_532" data-name="Line 532" x1="8.877" transform="translate(185.982 646.895)" fill="none" stroke="#6a900a" stroke-miterlimit="10" stroke-width="1"/>
        <line id="Line_533" data-name="Line 533" x1="8.877" transform="translate(185.982 629.15)" fill="none" stroke="#6a900a" stroke-miterlimit="10" stroke-width="1"/>
        <line id="Line_534" data-name="Line 534" x1="8.877" transform="translate(185.982 620.273)" fill="none" stroke="#6a900a" stroke-miterlimit="10" stroke-width="1"/>
        <line id="Line_535" data-name="Line 535" y1="51.758" transform="translate(185.982 606.967)" fill="none" stroke="#6a900a" stroke-miterlimit="10" stroke-width="1"/>
        <line id="Line_536" data-name="Line 536" y2="51.758" transform="translate(197.812 606.967)" fill="none" stroke="#6a900a" stroke-miterlimit="10" stroke-width="1"/>
        <path id="Path_1232" data-name="Path 1232" d="M175.628,620.276c0-4.9,10.929-8.877,24.4-8.877s24.4,3.974,24.4,8.877v45.852h-48.8Z" fill="none" stroke="#6a900a" stroke-miterlimit="10" stroke-width="1"/>
        <path id="Path_1233" data-name="Path 1233" d="M224.433,626.2c7.651.715,13.315,3.231,13.315,6.231v33.688" fill="none" stroke="#6a900a" stroke-miterlimit="10" stroke-width="1"/>
      </g>
      <g id="Group_235" data-name="Group 235">
        <g id="Group_233" data-name="Group 233">
          <path id="Path_1234" data-name="Path 1234" d="M107.482,627.674V609.918a2.964,2.964,0,0,1,2.962-2.962h8.877a2.964,2.964,0,0,1,2.962,2.962v2.962" fill="none" stroke="#6a900a" stroke-miterlimit="10" stroke-width="1"/>
          <path id="Path_1235" data-name="Path 1235" d="M111.92,646.9H98.605V640.98H123.75" fill="none" stroke="#6a900a" stroke-miterlimit="10" stroke-width="1"/>
          <path id="Path_1236" data-name="Path 1236" d="M135.58,646.9h10.353V640.98h-7.391" fill="none" stroke="#6a900a" stroke-miterlimit="10" stroke-width="1"/>
          <line id="Line_537" data-name="Line 537" x1="14.792" transform="translate(114.874 614.359)" fill="none" stroke="#6a900a" stroke-miterlimit="10" stroke-width="1"/>
          <path id="Path_1237" data-name="Path 1237" d="M144.262,646.9a22.187,22.187,0,0,1-43.976.009" fill="none" stroke="#6a900a" stroke-miterlimit="10" stroke-width="1"/>
          <path id="Path_1238" data-name="Path 1238" d="M100.286,640.981a21.965,21.965,0,0,1,14.6-17.745V618.8h2.962v-4.438h8.877V618.8h2.961v4.438a21.964,21.964,0,0,1,14.6,17.745" fill="none" stroke="#6a900a" stroke-miterlimit="10" stroke-width="1"/>
          <line id="Line_538" data-name="Line 538" x2="46.539" transform="translate(97.129 666.125)" fill="none" stroke="#6a900a" stroke-miterlimit="10" stroke-width="1"/>
          <line id="Line_539" data-name="Line 539" x1="2.962" transform="translate(123.751 618.797)" fill="none" stroke="#6a900a" stroke-miterlimit="10" stroke-width="1"/>
          <line id="Line_540" data-name="Line 540" x1="2.953" transform="translate(117.836 618.797)" fill="none" stroke="#6a900a" stroke-miterlimit="10" stroke-width="1"/>
        </g>
        <g id="Group_234" data-name="Group 234">
          <path id="Path_1239" data-name="Path 1239" d="M129.665,618.063v-8.145a2.964,2.964,0,0,1,2.96-2.96H141.5a2.964,2.964,0,0,1,2.964,2.96v2.962" fill="none" stroke="#6a900a" stroke-miterlimit="10" stroke-width="1"/>
          <path id="Path_1240" data-name="Path 1240" d="M157.773,646.9h10.353V640.98h-7.4" fill="none" stroke="#6a900a" stroke-miterlimit="10" stroke-width="1"/>
          <line id="Line_541" data-name="Line 541" x1="14.783" transform="translate(137.066 614.359)" fill="none" stroke="#6a900a" stroke-miterlimit="10" stroke-width="1"/>
          <path id="Path_1241" data-name="Path 1241" d="M166.445,646.9a22.2,22.2,0,0,1-32.75,16.45" fill="none" stroke="#6a900a" stroke-miterlimit="10" stroke-width="1"/>
          <path id="Path_1242" data-name="Path 1242" d="M133.51,624.842a22.362,22.362,0,0,1,3.556-1.606V618.8h2.964v-4.438h8.877V618.8h2.962v4.438a21.962,21.962,0,0,1,14.6,17.745" fill="none" stroke="#6a900a" stroke-miterlimit="10" stroke-width="1"/>
          <line id="Line_542" data-name="Line 542" x2="46.539" transform="translate(119.312 666.125)" fill="none" stroke="#6a900a" stroke-miterlimit="10" stroke-width="1"/>
          <line id="Line_543" data-name="Line 543" x1="2.962" transform="translate(145.934 618.797)" fill="none" stroke="#6a900a" stroke-miterlimit="10" stroke-width="1"/>
          <line id="Line_544" data-name="Line 544" x1="2.962" transform="translate(140.019 618.797)" fill="none" stroke="#6a900a" stroke-miterlimit="10" stroke-width="1"/>
        </g>
      </g>
    </g>
    <g id="Group_238" data-name="Group 238" transform="translate(-1.767 -343.33)">
      <path id="Path_1243" data-name="Path 1243" d="M1788.923,514.782h27.346v4.82l-3.216,3.217v27.345" fill="none" stroke="#6a900a" stroke-miterlimit="10" stroke-width="1"/>
      <path id="Path_1244" data-name="Path 1244" d="M1796.96,514.782V495.473c0-3.85-2.562-6.514-4.831-8.037h-6.441c-2.254,1.522-4.831,4.2-4.831,8.037v9.647" fill="none" stroke="#6a900a" stroke-miterlimit="10" stroke-width="1"/>
      <path id="Path_1245" data-name="Path 1245" d="M1805.011,511.564V479.385a3.221,3.221,0,0,0-3.22-3.221h-9.647a3.221,3.221,0,0,0-3.221,3.221h0v3.22" fill="none" stroke="#6a900a" stroke-miterlimit="10" stroke-width="1"/>
      <path id="Path_1246" data-name="Path 1246" d="M1751.915,508.34V489.032a3.221,3.221,0,0,1,3.221-3.221h9.647a3.221,3.221,0,0,1,3.221,3.221h0v3.221" fill="none" stroke="#6a900a" stroke-miterlimit="10" stroke-width="1"/>
      <line id="Line_545" data-name="Line 545" x2="4.831" transform="translate(1800.18 493.863)" fill="none" stroke="#6a900a" stroke-miterlimit="10" stroke-width="1"/>
      <line id="Line_546" data-name="Line 546" x2="6.441" transform="translate(1785.702 482.605)" fill="none" stroke="#6a900a" stroke-miterlimit="10" stroke-width="1"/>
      <path id="Path_1247" data-name="Path 1247" d="M1756.746,529.259h-14.478v-6.441h27.346" fill="none" stroke="#6a900a" stroke-miterlimit="10" stroke-width="1"/>
      <path id="Path_1248" data-name="Path 1248" d="M1782.482,529.259h11.257v-6.441H1785.7" fill="none" stroke="#6a900a" stroke-miterlimit="10" stroke-width="1"/>
      <line id="Line_547" data-name="Line 547" x1="16.088" transform="translate(1759.967 493.863)" fill="none" stroke="#6a900a" stroke-miterlimit="10" stroke-width="1"/>
      <path id="Path_1249" data-name="Path 1249" d="M1791.924,529.245a24.136,24.136,0,0,1-47.84.015" fill="none" stroke="#6a900a" stroke-miterlimit="10" stroke-width="1"/>
      <path id="Path_1250" data-name="Path 1250" d="M1744.084,522.819a23.9,23.9,0,0,1,15.869-19.294v-4.831h3.221v-4.831h9.647v4.831h3.223v4.831a23.868,23.868,0,0,1,15.866,19.309" fill="none" stroke="#6a900a" stroke-miterlimit="10" stroke-width="1"/>
      <line id="Line_548" data-name="Line 548" x2="4.831" transform="translate(1800.18 501.899)" fill="none" stroke="#6a900a" stroke-miterlimit="10" stroke-width="1"/>
      <line id="Line_549" data-name="Line 549" y2="11.272" transform="translate(1811.437 501.899)" fill="none" stroke="#6a900a" stroke-miterlimit="10" stroke-width="1"/>
      <line id="Line_550" data-name="Line 550" x1="14.478" transform="translate(1798.57 522.818)" fill="none" stroke="#6a900a" stroke-miterlimit="10" stroke-width="1"/>
      <line id="Line_551" data-name="Line 551" x2="77.221" transform="translate(1740.658 550.164)" fill="none" stroke="#6a900a" stroke-miterlimit="10" stroke-width="1"/>
      <line id="Line_552" data-name="Line 552" x1="3.221" transform="translate(1769.614 498.693)" fill="none" stroke="#6a900a" stroke-miterlimit="10" stroke-width="1"/>
      <line id="Line_553" data-name="Line 553" x1="3.221" transform="translate(1763.173 498.693)" fill="none" stroke="#6a900a" stroke-miterlimit="10" stroke-width="1"/>
      <line id="Line_554" data-name="Line 554" y2="4.831" transform="translate(1798.57 538.907)" fill="none" stroke="#6a900a" stroke-miterlimit="10" stroke-width="1"/>
      <line id="Line_555" data-name="Line 555" y2="4.831" transform="translate(1805.011 538.907)" fill="none" stroke="#6a900a" stroke-miterlimit="10" stroke-width="1"/>
    </g>
    <g id="Group_241" data-name="Group 241" transform="translate(-1.767 -343.33)">
      <path id="Path_1251" data-name="Path 1251" d="M1888.109,550.355h-69.22a.765.765,0,0,1,0-1.53h69.21a.76.76,0,0,1,.76.76h0a.747.747,0,0,1-.724.77Z" fill="#7c7b7b"/>
      <g id="Group_239" data-name="Group 239">
        <path id="Path_1252" data-name="Path 1252" d="M1850.449,542.905c-1.92,0-3.83-1.77-5.38-4.98-4.12-8.55-5.36-26.31,4.78-39.01l.6-.75.6.75c10.13,12.7,8.89,30.46,4.77,39.02C1854.279,541.135,1852.369,542.905,1850.449,542.905Zm0-42.27c-8.97,12.01-7.75,28.84-4,36.62,1.24,2.58,2.74,4.11,4,4.11s2.76-1.53,3.99-4.11C1858.2,529.475,1859.419,512.655,1850.449,500.635Z" fill="#7c7b7b"/>
        <path id="Path_1253" data-name="Path 1253" d="M1850.449,550.355a.76.76,0,0,1-.76-.76v-32.39a.76.76,0,1,1,1.52,0v32.392A.76.76,0,0,1,1850.449,550.355Z" fill="#7c7b7b"/>
      </g>
      <g id="Group_240" data-name="Group 240">
        <path id="Path_1254" data-name="Path 1254" d="M1865.709,542.905c-1.54,0-3.05-1.38-4.26-3.9-3.16-6.56-4.11-20.17,3.66-29.91l.6-.75.6.75c7.77,9.74,6.82,23.36,3.66,29.92C1868.759,541.525,1867.249,542.905,1865.709,542.905Zm0-32.08c-6.63,9.08-5.7,21.67-2.88,27.52.91,1.9,1.99,3.03,2.88,3.03s1.97-1.13,2.88-3.02C1871.409,532.495,1872.339,519.905,1865.709,510.825Z" fill="#7c7b7b"/>
        <path id="Path_1255" data-name="Path 1255" d="M1865.709,550.355a.76.76,0,0,1-.76-.76v-25.78a.76.76,0,0,1,1.52,0v25.77a.751.751,0,0,1-.73.77Z" fill="#7c7b7b"/>
      </g>
    </g>
    <path id="Path_1256" data-name="Path 1256" d="M1928.416,550.5h-205.44a29.983,29.983,0,0,1-29.986-29.98v-72.83A49.727,49.727,0,0,0,1643.3,398H1445.96a51.982,51.982,0,0,0-51.976,51.976V633.318a32.543,32.543,0,0,1-32.528,32.556h-176.8a26.814,26.814,0,0,1-26.845-26.783V534.221a47.9,47.9,0,0,0-47.822-47.978H758.847A28.642,28.642,0,0,0,730.289,514.8v18.563a23.524,23.524,0,0,1-23.418,23.418H469.552a35.406,35.406,0,0,0-35.412,35.4v47.14a26.2,26.2,0,0,1-26.126,26.274H1.767" transform="translate(-1.767 -343.33)" fill="none" stroke="#6a900a" stroke-miterlimit="10" stroke-width="2"/>
    <path id="Path_1289" data-name="Path 1289" d="M1446.129,398.368h37.353m-5.619,0L1464.8,362.491m0,35.877V362.142m-13.054,36.226,13.062-35.877m-13.062,35.877,19.589-19.65m6.527,19.65-19.589-19.658M1464.8,355.8a2.234,2.234,0,1,1-2.234,2.234,2.234,2.234,0,0,1,2.234-2.234Zm-7.315,15.008a14.715,14.715,0,1,1,14.629,0m-1.567-3.748a10.692,10.692,0,1,0-11.479,0m1.643-3.93a6.535,6.535,0,1,1,8.193,0" transform="translate(-1.767 -343.33)" fill="none" stroke="#6a900a" stroke-miterlimit="22.926" stroke-width="1"/>
  </g>
</svg>
