<svg id="Group_987" data-name="Group 987" xmlns="http://www.w3.org/2000/svg" width="233" height="65.105" viewBox="0 0 233 65.105">
  <path id="Path_1914" data-name="Path 1914" d="M18.115,14.8h3.824v6.02h7.427V14.8h3.824V30.943H29.367v-6.98H21.939v6.98H18.115Z" transform="translate(41.321 33.749)" fill="#d3d3d3"/>
  <path id="Path_1915" data-name="Path 1915" d="M27.625,23.152A5.523,5.523,0,0,0,28,25.242a4.7,4.7,0,0,0,1.093,1.64,4.966,4.966,0,0,0,1.7,1.086,6.6,6.6,0,0,0,4.436,0,4.98,4.98,0,0,0,1.706-1.086,4.74,4.74,0,0,0,1.089-1.64,5.884,5.884,0,0,0,0-4.164,4.732,4.732,0,0,0-1.089-1.654,5.029,5.029,0,0,0-1.706-1.086,6.6,6.6,0,0,0-4.436,0,5.015,5.015,0,0,0-1.7,1.086A4.7,4.7,0,0,0,28,21.079a5.533,5.533,0,0,0-.377,2.074m-3.973,0a8.619,8.619,0,0,1,.7-3.511A7.759,7.759,0,0,1,26.3,16.961a8.748,8.748,0,0,1,2.966-1.7,12.2,12.2,0,0,1,7.5,0,8.717,8.717,0,0,1,2.966,1.7,7.627,7.627,0,0,1,1.949,2.681,8.566,8.566,0,0,1,.7,3.511,8.56,8.56,0,0,1-.7,3.514,7.627,7.627,0,0,1-1.949,2.681,8.771,8.771,0,0,1-2.966,1.7,12.2,12.2,0,0,1-7.5,0,8.8,8.8,0,0,1-2.966-1.7,7.759,7.759,0,0,1-1.952-2.681,8.613,8.613,0,0,1-.7-3.514" transform="translate(53.95 33.465)" fill="#d3d3d3"/>
  <path id="Path_1916" data-name="Path 1916" d="M44.935,24.718a7.284,7.284,0,0,1-.466,2.644,5.764,5.764,0,0,1-1.385,2.1,6.414,6.414,0,0,1-2.29,1.388,10.234,10.234,0,0,1-6.352,0,6.414,6.414,0,0,1-2.29-1.388,5.806,5.806,0,0,1-1.385-2.1,7.284,7.284,0,0,1-.466-2.644V14.8h3.826V24.58a3.644,3.644,0,0,0,.256,1.391,3.252,3.252,0,0,0,1.837,1.834,3.686,3.686,0,0,0,1.411.266,3.58,3.58,0,0,0,1.394-.266,3.119,3.119,0,0,0,1.1-.732,3.217,3.217,0,0,0,.728-1.1,3.774,3.774,0,0,0,.256-1.391V14.8h3.822Z" transform="translate(69.119 33.75)" fill="#d3d3d3"/>
  <path id="Path_1917" data-name="Path 1917" d="M45.471,19.025a2.735,2.735,0,0,0-1.263-.807,4.858,4.858,0,0,0-1.509-.262,4.339,4.339,0,0,0-.856.089,3.426,3.426,0,0,0-.833.285,1.8,1.8,0,0,0-.637.515,1.228,1.228,0,0,0-.246.774,1.265,1.265,0,0,0,.587,1.119A5.79,5.79,0,0,0,42.2,21.4q.9.276,1.926.548a8.33,8.33,0,0,1,1.926.774,4.382,4.382,0,0,1,1.48,1.348,3.834,3.834,0,0,1,.591,2.257,4.728,4.728,0,0,1-2,4.013,6.394,6.394,0,0,1-2.133.981,10.506,10.506,0,0,1-5.7-.161,7.985,7.985,0,0,1-2.694-1.549l2.72-2.782a3.947,3.947,0,0,0,1.483,1.129,4.507,4.507,0,0,0,1.854.4,4.445,4.445,0,0,0,.942-.1,3.077,3.077,0,0,0,.856-.308,1.8,1.8,0,0,0,.614-.522,1.257,1.257,0,0,0,.233-.755,1.329,1.329,0,0,0-.6-1.152,5.621,5.621,0,0,0-1.509-.719q-.906-.3-1.962-.594a9.148,9.148,0,0,1-1.959-.8,4.606,4.606,0,0,1-1.506-1.322,3.591,3.591,0,0,1-.6-2.169,4.574,4.574,0,0,1,.551-2.28,5.028,5.028,0,0,1,1.47-1.64A6.68,6.68,0,0,1,40.3,15a9.3,9.3,0,0,1,2.477-.328,10.407,10.407,0,0,1,2.845.387,6.693,6.693,0,0,1,2.474,1.3Z" transform="translate(81.185 33.465)" fill="#d3d3d3"/>
  <path id="Path_1918" data-name="Path 1918" d="M40.471,14.8H52.264V18.08H44.294v3.011h7.529v3.284H44.294v3.284H52.7v3.284H40.471Z" transform="translate(92.314 33.749)" fill="#d3d3d3"/>
  <path id="Path_1919" data-name="Path 1919" d="M51.332,23.152a5.523,5.523,0,0,0,.381,2.09,4.74,4.74,0,0,0,1.089,1.64,5.011,5.011,0,0,0,1.706,1.086,6.6,6.6,0,0,0,4.436,0,5.012,5.012,0,0,0,1.706-1.086,4.732,4.732,0,0,0,1.086-1.64,5.837,5.837,0,0,0,0-4.164,4.724,4.724,0,0,0-1.086-1.654,5.061,5.061,0,0,0-1.706-1.086,6.6,6.6,0,0,0-4.436,0A5.061,5.061,0,0,0,52.8,19.425a4.732,4.732,0,0,0-1.089,1.654,5.534,5.534,0,0,0-.381,2.074m-3.973,0a8.62,8.62,0,0,1,.7-3.511,7.717,7.717,0,0,1,1.952-2.681,8.717,8.717,0,0,1,2.966-1.7,12.2,12.2,0,0,1,7.5,0,8.717,8.717,0,0,1,2.966,1.7,7.709,7.709,0,0,1,1.949,2.681,8.566,8.566,0,0,1,.7,3.511,8.56,8.56,0,0,1-.7,3.514,7.709,7.709,0,0,1-1.949,2.681,8.771,8.771,0,0,1-2.966,1.7,12.2,12.2,0,0,1-7.5,0,8.771,8.771,0,0,1-2.966-1.7,7.717,7.717,0,0,1-1.952-2.681,8.614,8.614,0,0,1-.7-3.514" transform="translate(108.026 33.465)" fill="#d3d3d3"/>
  <path id="Path_1920" data-name="Path 1920" d="M54.054,14.8H65.7V18.08h-7.82v3.284H65.11v3.284H57.878v6.3H54.054Z" transform="translate(123.298 33.749)" fill="#d3d3d3"/>
  <path id="Path_1921" data-name="Path 1921" d="M60.951,14.8h3.826v6.02H72.2V14.8h3.824V30.943H72.2v-6.98H64.777v6.98H60.951Z" transform="translate(139.029 33.749)" fill="#d3d3d3"/>
  <path id="Path_1922" data-name="Path 1922" d="M70.6,21.479h2.254c.344,0,.709-.013,1.093-.036a3.728,3.728,0,0,0,1.04-.2,1.85,1.85,0,0,0,.774-.535,1.565,1.565,0,0,0,.305-1.027,1.637,1.637,0,0,0-.269-.984,1.79,1.79,0,0,0-.689-.558,3.226,3.226,0,0,0-.955-.262A8.3,8.3,0,0,0,73.1,17.8H70.6ZM66.771,14.8h6.716A12.843,12.843,0,0,1,76,15.032a6.27,6.27,0,0,1,2.083.8,4.1,4.1,0,0,1,1.424,1.5,4.82,4.82,0,0,1,.525,2.362,4.526,4.526,0,0,1-.955,2.91,4.377,4.377,0,0,1-2.8,1.516L80.7,30.942H76.112l-3.629-6.454H70.6v6.454H66.771Z" transform="translate(152.304 33.75)" fill="#d3d3d3"/>
  <path id="Path_1923" data-name="Path 1923" d="M59.553,25.8c0-.942,0-2.782-1.473-2.782-1.539,0-1.47,1.841-1.47,2.782V28.45a5.475,5.475,0,0,0,1.434,4.311,5.388,5.388,0,0,0,1.509-4.311Zm18,14.637H75.87c-6.365,0-12.451-.351-17.849-2.845-5.177,2.375-11.493,2.845-17.731,2.845H38.6l.013-26.94,3.747,2.06-.01,21.356c5.84-.115,9.581-.843,12.579-2.195a8.814,8.814,0,0,1-2.07-6.263V25.8c0-3.816,2.051-6.283,5.22-6.283S63.3,21.979,63.3,25.8V28.45c0,2.674-.63,4.7-2.083,6.217,2.976,1.348,6.66,2.129,12.6,2.244L73.8,15.558l3.747-2.051ZM59.695,14.007a1.618,1.618,0,1,1-1.614-1.5,1.562,1.562,0,0,1,1.614,1.5m2.854,0a4.48,4.48,0,0,0-8.937,0,4.481,4.481,0,0,0,8.937,0M38.6,10.109,58.08,0,77.546,10.115v0L73.8,12.163,58.08,4l-15.716,8.17Z" transform="translate(88.049)" fill="#d3d3d3"/>
  <path id="Path_1924" data-name="Path 1924" d="M32.931,30.952H34.3V25.7a5.7,5.7,0,0,1,.285-1.9,3.8,3.8,0,0,1,.771-1.342,3.026,3.026,0,0,1,1.158-.794,3.917,3.917,0,0,1,1.424-.262,1.788,1.788,0,0,1,1.647.886,4.5,4.5,0,0,1,.535,2.343v6.322h1.365V25.039a5.364,5.364,0,0,1,.148-1.207,3.619,3.619,0,0,1,.5-1.181,2.768,2.768,0,0,1,.965-.9,3.144,3.144,0,0,1,1.568-.351A2.719,2.719,0,0,1,46,21.686a2.055,2.055,0,0,1,.794.758,3.389,3.389,0,0,1,.4,1.083,6.725,6.725,0,0,1,.115,1.237v6.188h1.362V24.7a8.159,8.159,0,0,0-.167-1.683,3.793,3.793,0,0,0-.617-1.444,3.257,3.257,0,0,0-1.214-1.014,4.528,4.528,0,0,0-2-.384,4.246,4.246,0,0,0-2.08.545,3.41,3.41,0,0,0-1.49,1.726,3.025,3.025,0,0,0-1.25-1.736,3.554,3.554,0,0,0-1.91-.535A3.966,3.966,0,0,0,35.7,20.8a3.71,3.71,0,0,0-1.365,1.486h-.066a3.485,3.485,0,0,1-.059-.705c-.007-.364-.016-.742-.033-1.135H32.817c0,.135.007.331.023.577s.026.522.036.81.016.571.033.85.023.522.023.719ZM20.48,24.026a4.008,4.008,0,0,1,.827-1.365,4.05,4.05,0,0,1,1.322-.919,4.543,4.543,0,0,1,3.455,0,3.968,3.968,0,0,1,1.319.919,4.023,4.023,0,0,1,.833,1.365,5.093,5.093,0,0,1,0,3.343,3.916,3.916,0,0,1-2.152,2.287,4.543,4.543,0,0,1-3.455,0,4.058,4.058,0,0,1-1.322-.922,3.946,3.946,0,0,1-.827-1.365,5.093,5.093,0,0,1,0-3.343m-1.24,3.891a5.254,5.254,0,0,0,1.139,1.749,5.03,5.03,0,0,0,1.749,1.152,5.964,5.964,0,0,0,2.228.407,5.865,5.865,0,0,0,2.218-.407,5.166,5.166,0,0,0,2.9-2.9,6.2,6.2,0,0,0,0-4.436,5.14,5.14,0,0,0-2.9-2.9,5.865,5.865,0,0,0-2.218-.407,5.964,5.964,0,0,0-2.228.407,5.023,5.023,0,0,0-1.749,1.148,5.3,5.3,0,0,0-1.139,1.752,6.2,6.2,0,0,0,0,4.436m-6.982,3.035h1.365V25.22a4.874,4.874,0,0,1,.207-1.444,3.245,3.245,0,0,1,.623-1.171,2.862,2.862,0,0,1,1.07-.784,3.784,3.784,0,0,1,1.536-.285,1.621,1.621,0,0,1,.522.092l.161-1.339c-.138-.033-.269-.059-.4-.082a2.3,2.3,0,0,0-.4-.033,3.357,3.357,0,0,0-2,.587A4.646,4.646,0,0,0,13.6,22.287a3.328,3.328,0,0,1-.056-.705c-.007-.364-.023-.742-.036-1.135H12.143c0,.135.01.331.026.577s.023.522.03.81.023.571.036.85.023.522.023.719ZM0,30.952H1.5V23.31H9.075V21.946H1.5V16.214H9.643V14.852H0Z" transform="translate(0 33.877)" fill="#d3d3d3"/>
</svg>
