<svg xmlns="http://www.w3.org/2000/svg" xmlns:xlink="http://www.w3.org/1999/xlink" width="1920" height="955" viewBox="0 0 1920 955">
  <defs>
    <clipPath id="clip-path">
      <rect id="Rectangle_541" data-name="Rectangle 541" width="1920" height="955" fill="none"/>
    </clipPath>
  </defs>
  <g id="Group_1286" data-name="Group 1286" transform="translate(-45)" opacity="0.8" style="isolation: isolate">
    <g id="Group_1285" data-name="Group 1285" transform="translate(45)" clip-path="url(#clip-path)">
      <path id="Path_2492" data-name="Path 2492" d="M771.723,495.386a62.263,62.263,0,1,1-62.263,62.263,62.2,62.2,0,0,1,62.263-62.263" transform="translate(376.554)" fill="#6a900a"/>
      <path id="Path_2493" data-name="Path 2493" d="M77.368,898.956a288.119,288.119,0,0,1,0-103.808l6.718-36.192L0,710.411A379.537,379.537,0,0,1,59.814,607.037L143.9,655.581l27.957-23.838a281.011,281.011,0,0,1,89.5-51.8l34.675-12.353V470.721a381.622,381.622,0,0,1,73-4.471V657.325a190.812,190.812,0,0,0-147.551,55.47c-65.736,65.736-73.5,167.862-23.3,242.205H49.7l34.386-19.852Z" transform="translate(1550.964)" fill="#6a900a"/>
      <path id="Path_2494" data-name="Path 2494" d="M25.519,909.792a87.244,87.244,0,0,1,0-123.313,86.1,86.1,0,0,1,61.548-25.572,88.208,88.208,0,0,1,12.318.868V934.45a87.081,87.081,0,0,1-73.866-24.658" transform="translate(1820.615)" fill="#6a900a"/>
      <path id="Path_2495" data-name="Path 2495" d="M0,0H1920V363.087c-42.494-1.472-83.581,4.133-137.148,16.829a51.916,51.916,0,0,0-39.876,50.5v65.883a381.275,381.275,0,0,0-58.3,33.808l-57.864-33.375a52.35,52.35,0,0,0-64.148,9.536c-56.564,60.464-104.892,126.78-123.1,217.368a51.994,51.994,0,0,0,23.622,54.4l57.647,35.759a389,389,0,0,0,0,67.4l-57.647,35.759A52.182,52.182,0,0,0,1438.9,955H0ZM938.528,592.672a23.423,23.423,0,0,0,23.154,19.847h31.326a164.08,164.08,0,0,0,30.159,52.145L1007.6,691.71a23.3,23.3,0,0,0,5.254,29.769,212.663,212.663,0,0,0,61.1,35.412,23.786,23.786,0,0,0,28.6-10.312l15.566-27.045a164.39,164.39,0,0,0,60.123,0l15.566,27.045a23.263,23.263,0,0,0,28.6,10.312,212.658,212.658,0,0,0,61.1-35.412,23.534,23.534,0,0,0,5.254-29.769l-15.566-27.046a164.063,164.063,0,0,0,30.159-52.145h31.326a23.409,23.409,0,0,0,23.154-19.458,219.307,219.307,0,0,0,0-70.435,23.423,23.423,0,0,0-23.154-19.847h-31.326a164.063,164.063,0,0,0-30.159-52.145l15.566-27.046a23.3,23.3,0,0,0-5.253-29.769,212.677,212.677,0,0,0-61.1-35.412,23.785,23.785,0,0,0-28.6,10.312l-15.566,27.045a164.389,164.389,0,0,0-60.123,0l-15.566-27.045a23.263,23.263,0,0,0-28.6-10.312,212.663,212.663,0,0,0-61.1,35.412,23.534,23.534,0,0,0-5.253,29.769l15.565,27.046a164.078,164.078,0,0,0-30.158,52.145H961.682a23.41,23.41,0,0,0-23.154,19.458,213.9,213.9,0,0,0,0,70.435" fill="#6a900a"/>
    </g>
  </g>
</svg>
