<svg xmlns="http://www.w3.org/2000/svg" xmlns:xlink="http://www.w3.org/1999/xlink" width="375" height="686" viewBox="0 0 375 686">
  <defs>
    <clipPath id="clip-path">
      <rect id="Rectangle_551" data-name="Rectangle 551" width="375" height="686" fill="none"/>
    </clipPath>
  </defs>
  <g id="Group_1381" data-name="Group 1381" opacity="0.8">
    <g id="Group_1380" data-name="Group 1380" clip-path="url(#clip-path)">
      <path id="Path_2503" data-name="Path 2503" d="M0,622.693c.167.021.334.03.5.053v58.312c-.166.023-.333.035-.5.056Z" transform="translate(374.5)" fill="#6a900a"/>
      <path id="Path_2504" data-name="Path 2504" d="M0,522.937c.167.005.333.006.5.011v64.525c-.167-.01-.333-.009-.5-.019Z" transform="translate(374.5)" fill="#6a900a"/>
      <path id="Path_2505" data-name="Path 2505" d="M0,0H375V488.111c-.167-.006-.333-.007-.5-.012V.5H.5v685H213.018c-.045.165-.076.334-.116.5H0Z" fill="#6a900a"/>
      <path id="Path_2506" data-name="Path 2506" d="M26.627,669.071a97.318,97.318,0,0,1,0-35.056L28.9,621.794.5,605.4a128.2,128.2,0,0,1,20.2-34.909l28.4,16.394,9.441-8.051a94.9,94.9,0,0,1,30.225-17.491l11.71-4.172V524.458a128.869,128.869,0,0,1,24.151-1.521v64.517A64.509,64.509,0,0,0,65.836,685.5H21.609l7.287-4.207Z" transform="translate(249.878)" fill="#6a900a"/>
      <path id="Path_2507" data-name="Path 2507" d="M328.686,493.794a17.532,17.532,0,0,0-13.466,17.052v22.248a128.621,128.621,0,0,0-19.687,11.418l-19.541-11.271a17.678,17.678,0,0,0-21.662,3.22c-19.1,20.419-35.422,42.812-41.569,73.4a17.557,17.557,0,0,0,7.977,18.369l19.467,12.075a131.269,131.269,0,0,0,0,22.761l-19.467,12.075a17.653,17.653,0,0,0-7.72,10.356H.5V.5h374V488.1c-14.173-.435-27.936,1.459-45.814,5.7M185.158,541.986a7.908,7.908,0,0,0-7.819-6.7H166.76a55.392,55.392,0,0,0-10.184-17.609l5.256-9.134a7.869,7.869,0,0,0-1.774-10.054,71.807,71.807,0,0,0-20.631-11.957,8.032,8.032,0,0,0-9.659,3.481l-5.257,9.134a55.518,55.518,0,0,0-20.3,0l-5.257-9.134a7.854,7.854,0,0,0-9.658-3.481,71.812,71.812,0,0,0-20.632,11.957,7.948,7.948,0,0,0-1.774,10.054l5.256,9.134a55.411,55.411,0,0,0-10.184,17.609H51.38a7.9,7.9,0,0,0-7.819,6.57,72.247,72.247,0,0,0,0,23.785,7.908,7.908,0,0,0,7.819,6.7H61.959a55.4,55.4,0,0,0,10.184,17.61l-5.256,9.133a7.868,7.868,0,0,0,1.774,10.053A71.815,71.815,0,0,0,89.293,621.1a8.03,8.03,0,0,0,9.658-3.482l5.257-9.133a55.518,55.518,0,0,0,20.3,0l5.257,9.133a7.855,7.855,0,0,0,9.659,3.482,71.81,71.81,0,0,0,20.631-11.958,7.947,7.947,0,0,0,1.774-10.053l-5.256-9.133a55.4,55.4,0,0,0,10.184-17.61h10.579a7.9,7.9,0,0,0,7.819-6.57,74.055,74.055,0,0,0,0-23.786" fill="#6a900a"/>
      <path id="Path_2508" data-name="Path 2508" d="M9.118,672.731a29.462,29.462,0,0,1,0-41.642A29.075,29.075,0,0,1,29.9,622.453a29.891,29.891,0,0,1,3.66.24v58.421a29.39,29.39,0,0,1-24.444-8.383" transform="translate(340.939)" fill="#6a900a"/>
      <path id="Path_2509" data-name="Path 2509" d="M260.607,574.84a21.026,21.026,0,1,1,21.026-21.026,21,21,0,0,1-21.026,21.026" transform="translate(-146.214)" fill="#6a900a"/>
      <path id="Path_2510" data-name="Path 2510" d="M0,488.1c.167.005.333.006.5.012v34.838c-.167-.006-.333-.006-.5-.011Z" transform="translate(374.5)" fill="#6a900a"/>
      <path id="Path_2511" data-name="Path 2511" d="M0,587.454c.167.01.333.009.5.02v35.272c-.166-.024-.333-.033-.5-.053Z" transform="translate(374.5)" fill="#6a900a"/>
    </g>
  </g>
</svg>
